<?xml version="1.0" encoding="UTF-8"?>
<!-- Generator: visioncortex VTracer 0.6.4 -->
<svg version="1.1" xmlns="http://www.w3.org/2000/svg" width="512" height="512">
<path d="M0 0 C1.02 0 2.04 0 3.08 0.01 C17.69 0.06 32.03 0.31 46.38 3.31 C47.35 3.51 48.32 3.71 49.33 3.91 C79.86 10.3 108.64 21.21 135.38 37.31 C150.5 46.81 164.52 57.93 177.38 70.31 C178.36 71.26 178.36 71.26 179.37 72.23 C188.86 81.37 197.6 90.67 205.38 101.31 C206.23 102.46 207.09 103.61 207.95 104.77 C213.99 112.96 219.35 121.47 224.38 130.31 C224.74 130.94 225.1 131.58 225.48 132.23 C239.4 156.55 248.33 183.65 253.55 211.12 C256.05 226.1 256.75 240.77 256.69 255.94 C256.69 256.96 256.68 257.97 256.68 259.02 C256.63 273.63 256.38 287.96 253.38 302.31 C253.08 303.77 253.08 303.77 252.77 305.27 C246.39 335.8 235.48 364.57 219.38 391.31 C209.88 406.43 198.75 420.46 186.38 433.31 C185.74 433.97 185.11 434.63 184.46 435.31 C175.32 444.8 166.02 453.54 155.38 461.31 C154.22 462.17 153.07 463.03 151.92 463.89 C143.73 469.92 135.23 475.31 126.38 480.31 C125.67 480.71 124.96 481.12 124.23 481.53 C101.1 494.56 75.93 503.31 49.94 508.62 C49.22 508.77 48.5 508.92 47.76 509.07 C33.08 511.86 18.56 512.66 3.65 512.63 C0.71 512.63 -2.23 512.65 -5.17 512.67 C-18.54 512.72 -31.44 511.51 -44.62 509.31 C-46.33 509.03 -46.33 509.03 -48.07 508.74 C-76.37 503.66 -103.65 493.13 -128.56 478.88 C-141.69 471.15 -154.09 462.26 -165.62 452.31 C-166.37 451.68 -167.12 451.04 -167.88 450.39 C-181.39 438.58 -194.06 425.83 -204.62 411.31 C-205.48 410.16 -206.34 409.01 -207.2 407.86 C-213.24 399.67 -218.62 391.17 -223.62 382.31 C-224.03 381.61 -224.43 380.9 -224.84 380.17 C-237.87 357.03 -246.62 331.86 -251.94 305.88 C-252.08 305.16 -252.23 304.44 -252.38 303.7 C-255.36 288.05 -256 272.58 -255.94 256.69 C-255.94 255.67 -255.93 254.65 -255.93 253.6 C-255.88 238.99 -255.63 224.66 -252.62 210.31 C-252.43 209.34 -252.23 208.36 -252.02 207.36 C-245.64 176.82 -234.73 148.05 -218.62 121.31 C-209.13 106.19 -198 92.16 -185.62 79.31 C-184.99 78.65 -184.36 77.99 -183.71 77.31 C-174.57 67.83 -165.27 59.09 -154.62 51.31 C-153.47 50.45 -152.32 49.6 -151.17 48.74 C-142.98 42.7 -134.48 37.32 -125.62 32.31 C-124.92 31.91 -124.21 31.51 -123.48 31.09 C-100.35 18.07 -75.18 9.32 -49.19 4 C-48.47 3.85 -47.75 3.71 -47.01 3.55 C-31.36 0.58 -15.89 -0.06 0 0 Z " fill="#FF749F" transform="translate(255.625,-0.3125)"/>
<path d="M0 0 C5.13 0.55 10.15 1.53 15.21 2.55 C22.11 3.95 29.03 5.12 35.99 6.2 C78.73 12.84 121.18 21.43 163.59 29.89 C166.05 30.38 168.51 30.87 170.97 31.36 C174.86 32.13 178.76 32.91 182.66 33.69 C184.09 33.98 185.51 34.26 186.94 34.55 C194.4 36.03 201.84 37.62 209.24 39.41 C210.23 39.65 210.23 39.65 211.24 39.88 C215.06 40.83 218.28 42.07 221.63 44.13 C225.88 47.38 229.53 50.98 232.57 55.38 C234.43 58.64 235.63 61.75 236.57 65.38 C237.51 75.2 235.62 84.93 234.01 94.58 C233.74 96.24 233.47 97.9 233.2 99.57 C232.48 103.97 231.75 108.38 231.02 112.79 C230.57 115.52 230.12 118.25 229.67 120.98 C225.59 145.88 221.29 170.71 216.35 195.46 C215.19 201.25 214.13 207.07 213.07 212.88 C211.09 223.63 209.07 234.37 207.04 245.1 C206.69 246.92 206.35 248.73 206 250.55 C204.88 256.5 203.74 262.44 202.57 268.38 C202.4 269.25 202.23 270.13 202.05 271.02 C201.54 273.61 201.02 276.19 200.5 278.77 C200.34 279.55 200.19 280.32 200.03 281.12 C199.11 285.59 197.85 289.51 195.82 293.63 C193.79 296.92 191.56 299.66 188.76 302.32 C185.4 304.97 181.98 307.11 178.02 308.74 C173.57 309.91 169.13 309.69 164.57 309.38 C164.6 310.21 164.6 310.21 164.63 311.06 C165.14 326.37 165.14 326.37 163.96 332.62 C162.36 337.03 159.88 340.55 156.95 344.2 C153.98 347.33 151.1 349.42 147.26 351.38 C144.71 352.53 142.22 353.5 139.57 354.38 C137.33 354.53 135.08 354.63 132.84 354.69 C131.81 354.72 131.81 354.72 130.77 354.75 C128.49 354.82 126.21 354.87 123.93 354.93 C123.14 354.95 122.34 354.97 121.52 354.99 C101.94 355.5 82.35 355.63 62.76 355.63 C61.37 355.63 61.37 355.63 59.95 355.63 C28.42 355.64 -3.08 355.17 -34.59 354.28 C-37.73 354.2 -40.87 354.12 -44 354.04 C-48.95 353.92 -53.9 353.78 -58.84 353.61 C-60.65 353.56 -62.46 353.51 -64.28 353.47 C-77.87 353.15 -77.87 353.15 -84.14 351.27 C-88.3 349.58 -91.97 347.68 -95.74 345.26 C-99.66 341.07 -102.78 336.47 -105.43 331.38 C-107.53 325.41 -107.84 319.78 -108.03 313.48 C-108.07 312.4 -108.11 311.33 -108.15 310.22 C-108.27 306.78 -108.38 303.33 -108.49 299.88 C-108.57 297.69 -108.65 295.5 -108.73 293.31 C-108.96 286.68 -109.17 280.05 -109.37 273.42 C-109.43 271.32 -109.5 269.23 -109.57 267.13 C-110.41 240.78 -110.59 214.45 -110.56 188.09 C-110.55 182.57 -110.56 177.05 -110.56 171.53 C-110.6 132.7 -110.6 132.7 -110.05 117.31 C-110.02 116.38 -109.99 115.44 -109.95 114.47 C-109.72 109.19 -108.93 104.46 -107.43 99.38 C-105.46 95.47 -102.96 91.94 -99.88 88.81 C-96.96 86.3 -93.85 84.14 -90.43 82.38 C-75.67 77.61 -58.76 79.26 -43.43 79.38 C-43.29 78.42 -43.16 77.46 -43.02 76.48 C-42.37 71.94 -41.69 67.41 -40.99 62.88 C-40.87 62.07 -40.75 61.25 -40.62 60.41 C-40.06 56.81 -39.43 53.39 -38.42 49.88 C-36.99 44.85 -36.37 39.75 -35.66 34.59 C-34.84 28.95 -33.58 23.67 -31.43 18.38 C-29.03 14.11 -25.74 10.48 -22.18 7.13 C-18.77 4.4 -15.25 2.54 -11.12 1.08 C-7.32 0.1 -3.92 -0.15 0 0 Z " fill="#FFEAF3" transform="translate(202.4296875,71.6171875)"/>
<path d="M0 0 C5.13 0.55 10.15 1.53 15.21 2.55 C22.11 3.95 29.03 5.12 35.99 6.2 C78.73 12.84 121.18 21.43 163.59 29.89 C166.05 30.38 168.51 30.87 170.97 31.36 C174.86 32.13 178.76 32.91 182.66 33.69 C184.09 33.98 185.51 34.26 186.94 34.55 C194.4 36.03 201.84 37.62 209.24 39.41 C209.9 39.57 210.56 39.72 211.24 39.88 C215.06 40.83 218.28 42.07 221.63 44.13 C225.88 47.38 229.53 50.98 232.57 55.38 C234.43 58.64 235.63 61.75 236.57 65.38 C237.51 75.2 235.62 84.93 234.01 94.58 C233.74 96.24 233.47 97.9 233.2 99.57 C232.48 103.97 231.75 108.38 231.02 112.79 C230.57 115.52 230.12 118.25 229.67 120.98 C225.59 145.88 221.29 170.71 216.35 195.46 C215.19 201.25 214.13 207.07 213.07 212.88 C211.09 223.63 209.07 234.37 207.04 245.1 C206.69 246.92 206.35 248.73 206 250.55 C204.88 256.5 203.74 262.44 202.57 268.38 C202.31 269.69 202.31 269.69 202.05 271.02 C201.54 273.61 201.02 276.19 200.5 278.77 C200.34 279.55 200.19 280.32 200.03 281.12 C199.11 285.59 197.85 289.51 195.82 293.63 C193.79 296.92 191.56 299.66 188.76 302.32 C185.44 304.93 182.07 307.1 178.14 308.67 C175.24 309.48 172.78 309.54 169.78 309.48 C168.8 309.47 167.82 309.45 166.81 309.44 C166.07 309.42 165.33 309.4 164.57 309.38 C164.58 308.61 164.6 307.84 164.61 307.05 C165.32 262.6 165.73 218.14 165.85 173.69 C165.85 172.32 165.85 170.95 165.86 169.58 C165.86 168.9 165.86 168.22 165.86 167.52 C165.88 162.75 165.9 157.98 165.93 153.2 C165.97 146.69 165.99 140.18 165.99 133.67 C165.99 131.26 166.01 128.84 166.02 126.43 C166.05 123.09 166.05 119.76 166.04 116.42 C166.05 115.46 166.07 114.5 166.08 113.51 C166.04 108.41 165.37 104.2 163.66 99.37 C162.53 96.47 161.4 94.12 159.71 91.48 C156.56 88.08 153.63 85.12 149.51 82.95 C145.98 81.35 142.32 80.33 138.57 79.38 C135.95 79.21 133.44 79.12 130.82 79.14 C130.07 79.14 129.32 79.14 128.55 79.14 C126.06 79.13 123.56 79.14 121.07 79.16 C119.27 79.16 117.48 79.16 115.69 79.15 C110.83 79.15 105.97 79.17 101.11 79.18 C96.03 79.19 90.95 79.19 85.86 79.2 C76.24 79.2 66.63 79.22 57.01 79.24 C46.05 79.26 35.1 79.27 24.15 79.28 C1.62 79.3 -20.9 79.34 -43.43 79.38 C-42.64 73.88 -41.84 68.38 -40.99 62.88 C-40.81 61.66 -40.81 61.66 -40.62 60.41 C-40.06 56.81 -39.43 53.39 -38.42 49.88 C-36.99 44.85 -36.37 39.75 -35.66 34.59 C-34.84 28.95 -33.58 23.67 -31.43 18.38 C-29.03 14.11 -25.74 10.48 -22.18 7.13 C-18.77 4.4 -15.25 2.54 -11.12 1.08 C-7.32 0.1 -3.92 -0.15 0 0 Z " fill="#FFBCE1" transform="translate(202.4296875,71.6171875)"/>
<path d="M0 0 C1.22 0.02 1.22 0.02 2.46 0.05 C3.35 0.06 4.23 0.07 5.15 0.08 C6.51 0.11 6.51 0.11 7.91 0.15 C9.31 0.17 9.31 0.17 10.73 0.19 C13.02 0.23 15.31 0.28 17.6 0.34 C19.88 1.91 19.88 1.91 22.6 4.34 C23.91 6.63 24.99 8.76 26.02 11.16 C26.33 11.83 26.63 12.51 26.94 13.2 C27.94 15.43 28.93 17.67 29.91 19.9 C30.62 21.49 31.32 23.07 32.03 24.65 C33.51 27.93 34.97 31.21 36.43 34.5 C39.38 41.12 42.41 47.7 45.44 54.28 C53.67 72.21 61.78 90.19 69.9 108.17 C72.86 114.71 75.82 121.25 78.78 127.78 C80.06 130.6 81.34 133.42 82.61 136.24 C83.42 138.02 84.23 139.81 85.04 141.59 C86.88 145.65 88.72 149.72 90.54 153.79 C91.9 156.83 93.3 159.85 94.73 162.86 C95.39 164.27 96.05 165.69 96.71 167.11 C97.17 168.06 97.17 168.06 97.64 169.02 C98.47 170.84 98.47 170.84 99.6 174.34 C99.28 178.29 99.28 178.29 98.6 181.34 C96.12 183.32 96.12 183.32 93.6 185.34 C86.67 185.34 79.74 185.34 72.6 185.34 C67.6 180.34 67.6 180.34 65.91 177.19 C65.43 176.03 64.94 174.88 64.44 173.68 C64.04 172.75 64.04 172.75 63.62 171.79 C62.48 169.15 61.37 166.49 60.25 163.83 C59.43 161.88 58.59 159.94 57.75 158 C57.27 156.84 56.78 155.68 56.28 154.49 C54.46 150.72 54.46 150.72 49.6 146.34 C21.22 146.34 -7.16 146.34 -36.4 146.34 C-39.6 151.45 -42.11 155.54 -44.38 160.92 C-44.88 162.1 -45.39 163.28 -45.91 164.49 C-46.69 166.33 -47.48 168.18 -48.25 170.02 C-49.01 171.82 -49.79 173.62 -50.56 175.42 C-51.01 176.49 -51.46 177.55 -51.93 178.65 C-52.41 179.54 -52.9 180.43 -53.4 181.34 C-54.72 182.33 -56.04 183.32 -57.4 184.34 C-64.33 184.34 -71.26 184.34 -78.4 184.34 C-80.05 183.02 -81.7 181.7 -83.4 180.34 C-83.73 179.68 -84.06 179.02 -84.4 178.34 C-84.7 175.76 -84.7 175.76 -84.4 172.34 C-83.4 169.32 -82.06 166.47 -80.7 163.59 C-80.32 162.74 -79.93 161.9 -79.53 161.03 C-78.27 158.27 -76.99 155.53 -75.72 152.78 C-74.84 150.86 -73.96 148.95 -73.08 147.03 C-71.33 143.21 -69.57 139.4 -67.81 135.59 C-64.73 128.88 -61.72 122.15 -58.72 115.4 C-51.38 99 -43.9 82.67 -36.4 66.34 C-36.05 65.56 -35.69 64.78 -35.32 63.98 C-34.22 61.59 -33.13 59.2 -32.03 56.81 C-31.67 56.02 -31.3 55.22 -30.93 54.41 C-29.13 50.48 -27.32 46.55 -25.51 42.62 C-22.54 36.18 -19.57 29.74 -16.69 23.26 C-15.87 21.39 -15.03 19.53 -14.2 17.66 C-13.2 15.44 -12.21 13.2 -11.24 10.97 C-10.81 9.99 -10.37 9.02 -9.92 8.02 C-9.37 6.76 -9.37 6.76 -8.8 5.48 C-7.4 3.34 -7.4 3.34 -5.05 1.57 C-2.4 0.34 -2.4 0.34 0 0 Z " fill="#FF668A" transform="translate(223.403564453125,195.659423828125)"/>
<path d="M0 0 C1.65 0 3.3 0 5 0 C8.27 3.76 10.43 7.63 12.43 12.14 C12.89 13.18 12.89 13.18 13.37 14.23 C14.36 16.42 15.33 18.62 16.31 20.81 C16.96 22.24 17.6 23.68 18.25 25.11 C19.86 28.68 21.45 32.25 23.03 35.83 C24.02 38.05 25.03 40.26 26.04 42.47 C26.69 43.9 27.33 45.33 27.98 46.76 C28.44 47.74 28.44 47.74 28.9 48.75 C29.67 50.47 30.34 52.23 31 54 C31.19 56.95 31.19 56.95 31 59 C30.01 59.99 29.02 60.98 28 62 C11.5 62 -5 62 -22 62 C-23.32 60.68 -24.64 59.36 -26 58 C-25.42 52.98 -23.77 48.81 -21.65 44.29 C-21.31 43.55 -20.97 42.82 -20.63 42.06 C-19.55 39.73 -18.46 37.39 -17.38 35.06 C-16.67 33.53 -15.96 32 -15.25 30.47 C-13.86 27.45 -12.46 24.43 -11.05 21.41 C-9.69 18.48 -8.33 15.54 -6.99 12.6 C-6.67 11.91 -6.35 11.21 -6.02 10.5 C-5.42 9.2 -4.83 7.9 -4.24 6.59 C-3.53 5.04 -2.77 3.52 -2 2 C-1.34 1.34 -0.68 0.68 0 0 Z " fill="#FFEFF5" transform="translate(228,249)"/>
<path d="M0 0 C6.6 0 13.2 0 20 0 C21.65 1.32 23.3 2.64 25 4 C26.34 6.35 27.46 8.56 28.53 11.03 C28.84 11.72 29.16 12.41 29.48 13.13 C30.5 15.39 31.5 17.66 32.5 19.94 C33.2 21.5 33.9 23.07 34.61 24.64 C36.04 27.84 37.47 31.05 38.89 34.26 C40.89 38.77 42.91 43.27 44.94 47.77 C47.97 54.51 50.99 61.25 54 68 C53.01 68 52.02 68 51 68 C36.37 54.04 24.35 39.98 15 22 C12.9 17.71 10.89 13.39 9 9 C8.62 8.11 8.23 7.23 7.84 6.32 C7 4 7 4 7 1 C4.69 1 2.38 1 0 1 C0 0.67 0 0.34 0 0 Z " fill="#FF86C1" transform="translate(221,196)"/>
<path d="M0 0 C0.33 0 0.66 0 1 0 C1 14.19 1 28.38 1 43 C-2.96 43 -6.92 43 -11 43 C-12.32 41.35 -13.64 39.7 -15 38 C-15.19 35.46 -15.19 35.46 -15 32 C-14.08 29.45 -13.12 27.11 -11.97 24.67 C-11.66 23.99 -11.36 23.31 -11.04 22.62 C-10.06 20.47 -9.06 18.33 -8.06 16.19 C-7.4 14.73 -6.73 13.27 -6.06 11.81 C-2.73 4.55 -2.73 4.55 -1 1 C-0.67 0.67 -0.34 0.34 0 0 Z " fill="#FF434A" transform="translate(154,336)"/>
</svg>
