<?xml version="1.0" encoding="UTF-8"?>
<!-- Generator: visioncortex VTracer 0.6.4 -->
<svg version="1.1" xmlns="http://www.w3.org/2000/svg" width="512" height="512">
<path d="M0 0 C26.32 8.59 50.51 21.5 72.46 38.34 C84.49 47.82 96.44 58.12 106.1 70.05 C107.07 71.19 108.04 72.34 109.01 73.49 C116.88 82.85 123.8 92.57 130.1 103.05 C130.52 103.75 130.95 104.45 131.38 105.18 C145.27 128.51 154.67 153.55 159.91 180.17 C165.15 208.45 165.81 237.03 161.06 265.43 C156.32 292.2 147.96 317.97 134.63 341.77 C122.17 363.19 106.75 384.24 88.1 400.73 C86.76 401.84 85.43 402.94 84.1 404.05 C83.23 404.83 82.36 405.61 81.46 406.41 C62.51 423.3 39.88 436.37 16.45 445.95 C-4.29 454.19 -25.68 459.79 -47.9 462.05 C-48.89 462.16 -49.88 462.27 -50.89 462.38 C-79.84 465.16 -109.07 461.96 -137.15 454.74 C-164 447.38 -188.72 434.76 -211.42 418.83 C-226.06 408.3 -240.52 396.09 -251.9 382.05 C-252.87 380.9 -253.84 379.75 -254.82 378.61 C-262.68 369.24 -269.6 359.53 -275.9 349.05 C-276.33 348.34 -276.75 347.64 -277.19 346.92 C-291.07 323.58 -300.48 298.54 -305.71 271.92 C-310.95 243.66 -311.57 215.16 -306.9 186.77 C-302.86 163.64 -295.94 142.25 -285.9 121.05 C-285.41 120 -285.41 120 -284.9 118.92 C-273.2 94.63 -255.78 73.12 -236.9 54.05 C-234.34 51.56 -231.68 49.28 -228.9 47.05 C-227.84 46.16 -226.78 45.28 -225.72 44.39 C-203.44 25.98 -178.8 12.09 -151.71 2.11 C-134.33 -4.07 -116.25 -8.09 -97.9 -9.95 C-96.93 -10.06 -95.95 -10.17 -94.95 -10.29 C-63.05 -13.38 -30.53 -9.48 0 0 Z " fill="#383531" transform="translate(328.90234375,29.953125)"/>
<path d="M0 0 C1.75 0.32 1.75 0.32 4 1 C5.95 2.27 5.95 2.27 7.98 3.88 C9.1 4.76 9.1 4.76 10.24 5.66 C11.03 6.29 11.82 6.92 12.62 7.56 C13.84 8.52 13.84 8.52 15.08 9.5 C17.39 11.33 19.7 13.16 22 15 C22.97 15.77 23.95 16.53 24.95 17.32 C31.18 22.24 37.23 27.37 43.27 32.52 C45.03 34.03 46.79 35.52 48.55 37.02 C54.99 42.5 61.33 48.06 67.56 53.78 C69.64 55.67 71.75 57.53 73.88 59.38 C81.59 66.09 89.15 73.03 96.31 80.34 C97.9 81.9 99.55 83.33 101.26 84.77 C107.47 90.17 113.22 96.07 119.04 101.91 C121.06 103.93 123.08 105.95 125.11 107.97 C136.52 119.37 136.52 119.37 141.69 125.47 C143.51 127.6 145.49 129.55 147.5 131.5 C150.85 134.81 154 138.21 157.06 141.78 C158.99 143.98 160.96 146.13 162.95 148.28 C167.78 153.48 172.36 158.82 176.82 164.35 C178.98 166.97 181.21 169.49 183.5 172 C188.2 177.18 192.6 182.56 197 188 C198.01 189.23 199.02 190.46 200.04 191.69 C207.07 200.26 213.86 208.97 220.44 217.89 C222.05 220.07 223.68 222.25 225.3 224.42 C240.42 244.72 254.52 265.59 268 287 C267.19 289.3 267.19 289.3 266 292 C264.62 293.68 264.62 293.68 263.02 295.16 C262.42 295.72 261.82 296.28 261.2 296.86 C260.56 297.44 259.91 298.02 259.25 298.62 C258.58 299.24 257.91 299.86 257.21 300.49 C236.04 319.65 211.79 335.09 185.35 345.9 C164.62 354.14 143.23 359.74 121 362 C120.01 362.11 119.03 362.22 118.01 362.34 C89.06 365.12 59.83 361.91 31.75 354.69 C4.9 347.33 -19.82 334.71 -42.52 318.78 C-57.16 308.25 -71.62 296.04 -83 282 C-84.06 280.73 -85.13 279.47 -86.2 278.21 C-87.38 276.78 -88.57 275.36 -89.75 273.94 C-90.32 273.26 -90.89 272.59 -91.47 271.9 C-94.88 267.75 -97.15 264.05 -99 259 C-99.35 258.04 -99.7 257.09 -100.06 256.11 C-106.33 236.59 -106.76 217.29 -106.16 196.98 C-105.83 188.79 -104.85 180.98 -103 173 C-102.77 172.02 -102.55 171.05 -102.32 170.04 C-93.82 134.38 -78.73 101.75 -58.65 71.18 C-57.94 70.11 -57.23 69.04 -56.5 67.94 C-55.82 66.91 -55.13 65.88 -54.43 64.82 C-51.53 60.51 -48.78 56.59 -45 53 C-33.88 64.46 -25.73 78.59 -19 93 C-6.8 120.67 -0.39 150.61 3.24 180.5 C7.8 217.83 18.91 254.43 35.56 288.17 C49.2 314.95 66.65 338.93 87 361 C91.62 361 96.24 361 101 361 C100.09 360.12 99.19 359.23 98.25 358.32 C91.01 351.22 84.21 344.04 78 336 C77 334.74 75.99 333.47 74.98 332.21 C56.63 308.92 42.07 282.86 31.77 255.05 C31.09 253.23 30.36 251.42 29.62 249.62 C19.28 224.25 14.83 196.75 11.47 169.71 C10.16 159.47 8.15 149.54 5.63 139.54 C5 137 4.4 134.45 3.82 131.91 C-1.49 109.24 -9.4 86.71 -22 67 C-27.14 59.24 -32.63 51.8 -39 45 C-37.37 41.17 -34.82 38.24 -32.12 35.12 C-31.12 33.96 -30.12 32.79 -29.12 31.63 C-28.6 31.03 -28.09 30.43 -27.55 29.81 C-26.05 28.06 -24.57 26.3 -23.1 24.53 C-15.85 15.87 -8.09 7.87 0 0 Z " fill="#FE8700" transform="translate(160,130)"/>
<path d="M0 0 C4.17 0.9 7.43 2.91 11.06 5.06 C32.95 17.62 56.6 23.93 81.23 28.67 C122.85 36.73 164.84 48.32 203 67 C203.86 67.42 204.72 67.84 205.61 68.27 C224.22 77.4 242 88.64 256.54 103.58 C265.07 112.76 272.17 123.1 277.15 134.63 C278.55 138.55 278.94 142.42 279.25 146.56 C279.32 147.46 279.4 148.36 279.48 149.29 C281.68 178.82 278.86 208.14 271.02 236.72 C263.14 263.69 250.27 288.22 234 311 C230.46 315.77 226.78 320.42 223 325 C220.49 321.84 218.4 318.48 216.28 315.06 C204.94 296.75 192.38 279.26 179.49 262 C178.16 260.22 176.84 258.43 175.52 256.65 C164.86 242.32 153.66 228.43 142.08 214.84 C139.19 211.43 136.36 207.98 133.56 204.5 C129.19 199.12 124.5 194.06 119.77 188.99 C117.64 186.7 115.55 184.37 113.5 182 C109.02 176.84 104.36 171.84 99.71 166.84 C98.57 165.62 97.44 164.39 96.31 163.17 C87.25 153.36 77.93 143.83 68.5 134.38 C67.94 133.81 67.38 133.25 66.8 132.67 C61.22 127.07 55.64 121.54 49.62 116.4 C47.47 114.54 45.48 112.54 43.5 110.5 C40.23 107.19 36.88 104.09 33.35 101.07 C30.86 98.87 28.43 96.61 26.01 94.33 C20.38 89.05 14.67 84 8.64 79.18 C5.84 76.87 3.17 74.46 0.5 72 C-9.73 62.62 -20.77 54.24 -31.75 45.75 C-35.5 42.84 -39.25 39.92 -43 37 C-43 36.01 -43 35.02 -43 34 C-29.23 21.86 -15.03 10.56 0 0 Z " fill="#FE8700" transform="translate(213,86)"/>
<path d="M0 0 C4.02 2.94 6.92 6.2 9.75 10.25 C10.18 10.86 10.61 11.48 11.05 12.11 C24.17 31.14 33.12 52.44 39.14 74.7 C43.88 92.97 47.36 111.16 49.59 129.89 C53.97 166.31 65.32 202.27 81.54 235.14 C86.83 245.49 92.67 255.6 99.1 265.29 C99.55 266.14 99.55 266.14 100 267 C100 267.99 100 268.98 100 270 C85.09 273.71 70.3 276.58 55 278 C53.75 278.13 52.51 278.25 51.22 278.38 C42.19 279.25 33.05 280.03 24 279 C20.57 278 17.77 276.63 14.81 274.62 C13.01 273.27 11.28 271.88 9.59 270.38 C7.1 268.21 4.38 266.36 1.69 264.44 C-0.22 262.97 -2.11 261.49 -4 260 C-4.88 259.32 -5.75 258.63 -6.66 257.93 C-17.52 249.27 -28.24 239.82 -37 229 C-38.06 227.73 -39.13 226.47 -40.2 225.21 C-41.38 223.78 -42.57 222.36 -43.75 220.94 C-44.6 219.93 -44.6 219.93 -45.47 218.9 C-48.88 214.75 -51.15 211.05 -53 206 C-53.35 205.04 -53.7 204.09 -54.06 203.11 C-60.33 183.59 -60.76 164.29 -60.16 143.98 C-59.83 135.79 -58.85 127.98 -57 120 C-56.77 119.02 -56.55 118.05 -56.32 117.04 C-48.16 82.8 -34.01 50.93 -14.79 21.48 C-4.45 5.85 -4.45 5.85 0 0 Z " fill="#FE8700" transform="translate(114,183)"/>
<path d="M0 0 C25.66 6.36 51.29 18.06 73.39 32.53 C86.87 41.62 99.26 51.89 109 65 C111.51 68.58 113.79 72.24 116 76 C116.56 76.86 117.12 77.73 117.7 78.62 C119.88 82.35 121.58 85.93 122.45 90.19 C126.51 116.68 124.25 144.28 119.09 170.41 C113.96 195.09 105.06 219.37 92 241 C84.39 253.22 76.15 264.89 67 276 C64.49 272.84 62.4 269.48 60.28 266.06 C48.94 247.75 36.38 230.26 23.49 213 C22.16 211.22 20.84 209.43 19.52 207.65 C15.02 201.61 10.42 195.67 5.72 189.81 C3.21 186.66 0.98 183.5 -1 180 C-0.64 179.16 -0.27 178.32 0.1 177.46 C10.64 152.24 15.15 126.16 17 99 C17.66 99 18.32 99 19 99 C19.31 97.72 19.62 96.44 19.94 95.12 C20.94 92.14 22.05 89.93 23.89 87.35 C26.87 83.88 29.78 80.82 33.59 78.26 C35.7 77.08 37.8 75.99 40 75 C38.82 74.46 37.65 73.93 36.44 73.38 C32.85 71.55 29.69 69.6 26.68 66.93 C23.35 63.1 21.2 58.53 19 54 C18.01 55.98 17.02 57.96 16 60 C15.67 60 15.34 60 15 60 C14.85 58.88 14.71 57.77 14.55 56.62 C12.07 38.87 7.33 21.93 1.1 5.14 C0 2 0 2 0 0 Z " fill="#E04F01" transform="translate(369,135)"/>
<path d="M0 0 C3.81 3.68 7.2 7.54 10.5 11.69 C11.02 12.34 11.53 12.98 12.06 13.65 C17.75 20.86 23.11 28.29 28.42 35.78 C29.92 37.88 31.42 39.98 32.93 42.08 C44.11 57.71 54.74 73.75 65 90 C64.19 92.3 64.19 92.3 63 95 C61.62 96.68 61.62 96.68 60.02 98.16 C59.42 98.72 58.82 99.28 58.2 99.86 C57.56 100.44 56.91 101.02 56.25 101.62 C55.58 102.24 54.91 102.86 54.21 103.49 C33.04 122.65 8.79 138.09 -17.65 148.9 C-38.38 157.14 -59.77 162.74 -82 165 C-82.99 165.11 -83.97 165.22 -84.99 165.34 C-113.94 168.12 -143.17 164.91 -171.25 157.69 C-189.2 152.77 -206.96 145.46 -223 136 C-223.33 135.34 -223.66 134.68 -224 134 C-222.82 133.98 -222.82 133.98 -221.61 133.96 C-199.2 133.5 -177.56 131.74 -155.64 126.77 C-152 126 -152 126 -149 126 C-148.67 125.34 -148.34 124.68 -148 124 C-147.26 125.08 -146.52 126.15 -145.76 127.26 C-136.69 140.37 -126.72 152.22 -116 164 C-111.38 164 -106.76 164 -102 164 C-102.91 163.12 -103.81 162.23 -104.75 161.32 C-116.82 149.47 -126.94 136.57 -137 123 C-136.67 122.34 -136.34 121.68 -136 121 C-135.01 120.62 -135.01 120.62 -134.01 120.24 C-106.93 109.86 -82.1 97.02 -60 78 C-54.89 73.45 -49.93 68.75 -45 64 C-43.81 62.87 -43.81 62.87 -42.59 61.72 C-37.24 56.54 -32.58 50.87 -28 45 C-27.58 44.46 -27.16 43.92 -26.72 43.36 C-16.28 29.88 -7.44 15.34 0 0 Z " fill="#E14F01" transform="translate(363,327)"/>
<path d="M0 0 C2.4 0.04 4.79 0.03 7.19 -0.01 C10.59 0.04 13.6 0.3 16.92 1.04 C22.29 3.17 27.06 5.96 31.92 9.04 C32.73 9.55 33.54 10.06 34.38 10.58 C54.99 23.64 75.46 38.96 90.92 58.04 C91.89 59.19 92.87 60.34 93.84 61.49 C101.7 70.85 108.62 80.56 114.92 91.04 C115.35 91.75 115.77 92.45 116.21 93.18 C125.66 109.05 133.8 126.25 138.92 144.04 C138.59 145.03 138.26 146.02 137.92 147.04 C137.49 146.59 137.05 146.13 136.6 145.66 C122.7 131.18 108.36 119.91 90.92 110.04 C90.34 109.71 89.75 109.37 89.15 109.03 C70.44 98.39 50.22 91.02 29.92 84.04 C29.19 83.79 28.46 83.53 27.71 83.27 C13.72 78.39 -0.38 74.45 -14.76 70.92 C-15.81 70.66 -16.86 70.4 -17.95 70.13 C-29.77 67.19 -41.58 64.38 -53.58 62.23 C-77.44 57.97 -99.03 49.94 -120.08 38.04 C-116.35 34.9 -112.45 32.35 -108.2 29.98 C-107.52 29.6 -106.84 29.22 -106.14 28.83 C-82.13 15.64 -57.34 5.45 -30.26 0.67 C-20.25 -0.54 -10.06 -0.19 0 0 Z " fill="#E14F01" transform="translate(344.07666015625,41.95556640625)"/>
<path d="M0 0 C8.47 2.09 16.52 4.93 24.62 8.12 C25.85 8.6 27.07 9.08 28.33 9.58 C37.93 13.42 47.05 17.82 56 23 C59.03 30.04 61.25 37.06 63.06 44.5 C63.32 45.54 63.58 46.59 63.84 47.66 C67.55 63.07 70.17 78.6 70.13 94.49 C70.13 95.35 70.13 96.22 70.14 97.11 C70.14 98.93 70.13 100.74 70.13 102.56 C70.13 105.3 70.13 108.03 70.14 110.77 C70.15 139.08 64.64 164.79 55.12 191.35 C50.39 204.25 44.24 216.34 37 228 C35.19 227.24 35.19 227.24 33 226 C31.42 224.24 31.42 224.24 29.9 222.11 C29.33 221.32 28.76 220.54 28.18 219.73 C27.58 218.89 26.99 218.05 26.38 217.19 C25.12 215.45 23.86 213.71 22.6 211.97 C21.99 211.12 21.37 210.27 20.74 209.39 C18.46 206.26 16.12 203.18 13.75 200.12 C12.97 199.12 12.2 198.12 11.4 197.09 C10.61 196.07 9.82 195.05 9 194 C7.12 191.56 5.25 189.13 3.38 186.69 C2.53 185.59 1.68 184.49 0.84 183.39 C0.23 182.6 -0.38 181.81 -1 181 C-0.79 180.46 -0.58 179.93 -0.36 179.38 C9.75 153.42 15.48 126.82 17 99 C17.66 99 18.32 99 19 99 C19.31 97.72 19.62 96.44 19.94 95.12 C20.94 92.14 22.05 89.93 23.89 87.35 C26.87 83.88 29.78 80.82 33.59 78.26 C35.7 77.08 37.8 75.99 40 75 C38.82 74.46 37.65 73.93 36.44 73.38 C32.85 71.55 29.69 69.6 26.68 66.93 C23.35 63.1 21.2 58.53 19 54 C18.01 55.98 17.02 57.96 16 60 C15.67 60 15.34 60 15 60 C14.85 58.88 14.71 57.77 14.55 56.62 C12.07 38.87 7.33 21.93 1.1 5.14 C0 2 0 2 0 0 Z " fill="#EF6B02" transform="translate(369,135)"/>
<path d="M0 0 C3.81 3.68 7.2 7.54 10.5 11.69 C11.01 12.33 11.52 12.97 12.05 13.63 C18.31 21.55 24.15 29.77 30 38 C30.96 39.34 31.92 40.69 32.88 42.03 C33.58 43.01 34.28 43.99 35 45 C34.81 47.09 34.81 47.09 34 50 C32.42 52.33 30.84 54.46 29.06 56.62 C28.57 57.24 28.08 57.85 27.57 58.48 C23.64 63.33 19.51 67.98 15.26 72.55 C13.32 74.66 11.46 76.81 9.62 79 C-5.48 96.24 -25.48 109.88 -45.34 121.04 C-66.24 132.47 -89.45 141.75 -113 146 C-115 146.03 -117 146.03 -119 146 C-125.42 138.59 -131.58 131.19 -137 123 C-136.5 122.01 -136.5 122.01 -136 121 C-135.01 120.62 -135.01 120.62 -134.01 120.24 C-106.93 109.86 -82.1 97.02 -60 78 C-54.89 73.45 -49.93 68.75 -45 64 C-44.21 63.25 -43.41 62.49 -42.59 61.72 C-37.24 56.54 -32.58 50.87 -28 45 C-27.58 44.46 -27.16 43.92 -26.72 43.36 C-16.28 29.88 -7.44 15.34 0 0 Z " fill="#EF6A02" transform="translate(363,327)"/>
<path d="M0 0 C9.14 2.07 16.98 5.75 24.9 10.64 C25.59 11.09 26.29 11.54 27 12 C23.56 17.48 20.07 22.92 16.44 28.27 C-3.5 57.77 -20.28 90.34 -29 125 C-30.88 132.63 -32.55 140.28 -34 148 C-34.13 148.71 -34.27 149.41 -34.41 150.14 C-37.21 165.79 -36.18 182.16 -36 198 C-42.51 189.95 -45.49 178.62 -49 169 C-58.04 142.62 -61.63 114.71 -61.18 86.9 C-60.66 67.1 -58.56 45.73 -51.9 26.98 C-50.38 23.63 -48.23 21.12 -45.69 18.5 C-45.17 17.95 -44.64 17.4 -44.11 16.84 C-38.43 11.09 -32.12 6.77 -25 3 C-17.09 -0.72 -8.59 -0.9 0 0 Z " fill="#FE8700" transform="translate(80,163)"/>
<path d="M0 0 C2.69 2.49 5.38 5 8.06 7.5 C8.81 8.2 9.57 8.89 10.34 9.61 C15.22 14.17 19.71 18.89 24 24 C24.78 24.92 24.78 24.92 25.58 25.85 C36.23 38.37 45.08 51.67 53.19 65.94 C53.57 66.62 53.96 67.3 54.36 68 C55.28 69.65 56.14 71.32 57 73 C57 73.66 57 74.32 57 75 C52.03 74.39 47.37 73.35 42.56 71.94 C33.91 69.48 25.22 67.2 16.5 65 C15.81 64.83 15.12 64.65 14.41 64.47 C5.15 62.15 -4.1 60.13 -13.5 58.44 C-37.72 54.01 -59.61 46.09 -81 34 C-77.27 30.86 -73.37 28.31 -69.12 25.94 C-68.44 25.56 -67.76 25.18 -67.06 24.78 C-21.25 -0.39 -21.25 -0.39 0 0 Z " fill="#FD8700" transform="translate(305,46)"/>
<path d="M0 0 C2.91 0.41 5.15 1.07 7.81 2.36 C25.72 12.65 42.52 24.58 59 37 C59 38.32 59 39.64 59 41 C57.71 42.27 57.71 42.27 56.4 43.56 C50.37 49.53 44.47 55.51 39 62 C38.03 63.12 37.06 64.24 36.09 65.35 C35.02 66.59 33.95 67.83 32.88 69.06 C32.37 69.64 31.87 70.22 31.35 70.81 C27.98 74.72 24.95 78.76 22 83 C18.5 81.7 15.51 80.15 12.38 78.12 C6.39 74.47 0.16 71.9 -6.7 70.42 C-15.22 69.34 -24.65 68.76 -33.12 70.41 C-40.05 72.37 -46.04 76.06 -52 80 C-52.66 80 -53.32 80 -54 80 C-52.1 73.75 -49.75 68.01 -46.69 62.25 C-46.26 61.44 -45.83 60.63 -45.39 59.8 C-33.25 37.46 -17.51 18.27 0 0 Z " fill="#FD8700" transform="translate(92,84)"/>
<path d="M0 0 C0.01 0.94 0.03 1.89 0.04 2.86 C0.28 9.34 0.67 15.15 3.06 21.25 C7 29.66 12.48 36.62 19 43.19 C20.33 44.47 21.66 45.74 23 47 C23 47.66 23 48.32 23 49 C22.12 49.62 21.23 50.23 20.32 50.87 C12.62 56.29 5.2 61.92 -2 68 C-2.54 68.46 -3.08 68.91 -3.64 69.38 C-6.42 71.72 -9.19 74.07 -11.96 76.42 C-14.96 78.96 -17.98 81.49 -21 84 C-23.74 82.7 -26.15 81.26 -28.59 79.45 C-29.63 78.69 -29.63 78.69 -30.68 77.91 C-31.43 77.36 -32.17 76.82 -32.94 76.25 C-46.4 66.43 -60.17 56.95 -74.65 48.66 C-76.12 47.81 -77.56 46.91 -79 46 C-79.33 45.34 -79.66 44.68 -80 44 C-24.9 0 -24.9 0 0 0 Z " fill="#FD8700" transform="translate(182,31)"/>
<path d="M0 0 C0 0.33 0 0.66 0 1 C-0.95 1.01 -1.9 1.03 -2.88 1.04 C-24.32 1.67 -45.06 7.35 -65 15 C-81.56 21.65 -98.2 29.6 -112.87 39.82 C-113.57 40.21 -114.28 40.6 -115 41 C-116.32 41 -117.64 41 -119 41 C-130.93 30.2 -130.93 30.2 -134.39 24.12 C-136.58 19.87 -138.49 15.54 -140 11 C-140.09 9 -140.13 7 -140.12 5 C-140.13 3.95 -140.13 2.9 -140.13 1.81 C-140 -1 -140 -1 -139 -4 C-126.39 -6.88 -113.89 -9.69 -101 -11 C-100.02 -11.11 -99.05 -11.22 -98.04 -11.34 C-64.71 -14.57 -31.84 -9.77 0 0 Z " fill="#FE8700" transform="translate(332,31)"/>
<path d="M0 0 C2.87 -0.26 4.95 -0.2 7.75 0.52 C12.47 3.05 16.58 6.16 20.75 9.52 C21.71 10.27 22.67 11.02 23.66 11.8 C26.4 13.99 29.08 16.23 31.75 18.52 C32.52 19.18 33.29 19.84 34.09 20.52 C46.86 31.74 58.78 43.73 68.75 57.52 C69.2 58.14 69.66 58.77 70.13 59.42 C78.04 70.38 84.83 81.84 91 93.86 C91.33 94.51 91.67 95.16 92.01 95.83 C92.26 96.39 92.5 96.94 92.75 97.52 C92.75 98.18 92.75 98.84 92.75 99.52 C88.74 98.95 85.3 98.09 81.57 96.51 C80.1 95.9 80.1 95.9 78.6 95.28 C77.55 94.84 76.51 94.4 75.43 93.95 C62.75 88.75 49.86 84.49 36.75 80.52 C36.62 79.77 36.5 79.03 36.38 78.27 C35.77 75.62 35 73.81 33.66 71.47 C33.02 70.34 33.02 70.34 32.36 69.18 C31.89 68.39 31.42 67.59 30.93 66.77 C30.44 65.93 29.96 65.09 29.45 64.23 C21.42 50.73 12.23 38.2 1.75 26.52 C1.21 25.92 0.68 25.33 0.13 24.71 C-10.2 13.16 -10.2 13.16 -22.25 3.52 C-16.71 2.55 -11.16 1.65 -5.58 0.85 C-3.72 0.58 -1.86 0.29 0 0 Z " fill="#EF6A02" transform="translate(324.25390625,41.484375)"/>
<path d="M0 0 C3.07 3.82 6.08 7.68 9.06 11.56 C9.5 12.13 9.93 12.69 10.38 13.27 C12.6 16.17 14.82 19.07 17 22 C17 22.66 17 23.32 17 24 C0.96 28.7 -19.14 26.18 -35.56 25.27 C-36.5 25.22 -37.44 25.17 -38.41 25.12 C-39.24 25.07 -40.08 25.03 -40.95 24.98 C-41.62 24.99 -42.3 24.99 -43 25 C-43.66 25.33 -44.32 25.66 -45 26 C-66.81 16.49 -66.81 16.49 -75 11 C-75 10.67 -75 10.34 -75 10 C-74.21 9.99 -73.42 9.97 -72.61 9.96 C-50.2 9.5 -28.56 7.74 -6.64 2.77 C-3 2 -3 2 0 2 C0 1.34 0 0.68 0 0 Z " fill="#EF6A02" transform="translate(214,451)"/>
<path d="M0 0 C0.33 0 0.66 0 1 0 C1.21 1.13 1.41 2.27 1.62 3.44 C2.5 6.84 3.73 9.63 5.56 12.62 C7.28 15.07 8.91 16.93 11.22 18.83 C15 21.43 18.7 23.38 23 25 C20.66 26.56 18.84 27.5 16.31 28.56 C12.85 30.29 10.36 32.33 7.69 35.12 C5.56 37.64 4.1 39.76 2.83 42.81 C2.11 45.2 1.49 47.55 1 50 C-0.07 47.9 -1.09 45.79 -2.04 43.63 C-3.62 40.19 -5.14 36.99 -7.64 34.12 C-10.41 31.63 -13.23 29.74 -16.62 28.19 C-19.44 27.2 -22.05 26.45 -25 26 C-22.88 24.93 -20.75 23.89 -18.6 22.89 C-14.85 21.11 -11.47 19.36 -8.19 16.81 C-5.12 12.87 -2.94 8.6 -1 4 C-0.63 2.68 -0.29 1.34 0 0 Z " fill="#FEFBF8" transform="translate(388,185)"/>
<path d="M0 0 C19.81 -1.42 40 4.11 58.94 9.29 C61 10 61 10 64 12 C63 12.03 62.01 12.05 60.98 12.08 C51.61 12.43 42.75 13.62 33.6 15.72 C32.8 15.89 32 16.07 31.17 16.26 C30.46 16.42 29.75 16.59 29.02 16.76 C27 17 27 17 24.92 16.66 C21.86 15.61 19.49 13.7 16.88 11.81 C11.4 7.92 5.82 4.35 0 1 C0 0.67 0 0.34 0 0 Z " fill="#EE6A02" transform="translate(268,20)"/>
<path d="M0 0 C0.33 0 0.66 0 1 0 C0.4 9.21 -0.57 18.34 -1.73 27.49 C-2 29.66 -2.27 31.83 -2.54 34 C-2.71 35.39 -2.89 36.77 -3.06 38.16 C-3.3 40.03 -3.3 40.03 -3.54 41.93 C-4 45 -4 45 -5 48 C-5.99 47.67 -6.98 47.34 -8 47 C-8.98 45.09 -8.98 45.09 -10 42 C-10.87 34.14 -10.71 25.84 -9.28 18.08 C-7.43 11.7 -4.84 6.4 -1 1 C-0.67 0.67 -0.34 0.34 0 0 Z " fill="#FBF7F4" transform="translate(44,210)"/>
<path d="M0 0 C6.6 -0.43 12.4 1.16 18.75 2.88 C19.79 3.14 20.83 3.41 21.9 3.69 C29.6 5.73 29.6 5.73 33 8 C26.73 8.33 20.46 8.66 14 9 C13.01 8.01 12.02 7.02 11 6 C9.13 5.04 7.24 4.15 5.31 3.31 C4.32 2.88 3.32 2.44 2.3 1.99 C1.54 1.66 0.78 1.34 0 1 C0 0.67 0 0.34 0 0 Z " fill="#DE5302" transform="translate(299,24)"/>
<path d="M0 0 C0.66 0 1.32 0 2 0 C1.81 3.03 1.54 6.01 1 9 C-0.56 12.06 -0.56 12.06 -2 14 C-2.66 13.67 -3.32 13.34 -4 13 C-4.25 9.88 -4.25 9.88 -4 6 C-2 2.56 -2 2.56 0 0 Z " fill="#FBF5F0" transform="translate(50,185)"/>
<path d="M0 0 C0.33 0.99 0.66 1.98 1 3 C0.42 3.72 -0.16 4.44 -0.75 5.19 C-4.14 10.19 -5.39 16.24 -7 22 C-7.66 22 -8.32 22 -9 22 C-8.89 19.14 -8.66 16.77 -8 14 C-6.24 9.87 -4.25 5.89 -2 2 C-1.34 1.34 -0.68 0.68 0 0 Z " fill="#E2DEE6" transform="translate(44,210)"/>
<path d="M0 0 C1.98 0.66 3.96 1.32 6 2 C6.33 2.66 6.66 3.32 7 4 C2.71 3.67 -1.58 3.34 -6 3 C-6 2.67 -6 2.34 -6 2 C-4.02 1.67 -2.04 1.34 0 1 C0 0.67 0 0.34 0 0 Z " fill="#84441B" transform="translate(353,40)"/>
<path d="M0 0 C0.66 0 1.32 0 2 0 C2 1.65 2 3.3 2 5 C0.35 5.33 -1.3 5.66 -3 6 C-2.36 4.32 -1.69 2.66 -1 1 C-0.67 0.67 -0.34 0.34 0 0 Z " fill="#F0E6DF" transform="translate(50,185)"/>
</svg>
