<?xml version="1.0" encoding="UTF-8"?>
<!-- Generator: visioncortex VTracer 0.6.4 -->
<svg version="1.1" xmlns="http://www.w3.org/2000/svg" width="512" height="512">
<path d="M0 0 C2.14 -0.13 3.94 -0.04 6.04 0.38 C9.42 2.19 9.42 2.19 12.04 4.38 C14.03 7.37 14.98 9.98 16.04 13.38 C16.82 13.68 16.82 13.68 17.61 13.99 C42.31 23.53 66.98 33.11 91.59 42.87 C106.09 48.61 120.59 54.31 135.11 60 C136.18 60.42 137.25 60.84 138.35 61.28 C140.44 62.1 142.53 62.91 144.61 63.73 C146.61 64.51 148.6 65.3 150.6 66.08 C155.19 67.89 159.8 69.67 164.43 71.38 C165.26 71.69 166.1 72 166.96 72.32 C168.5 72.9 170.05 73.46 171.6 74.02 C173.45 74.71 175.25 75.54 177.04 76.38 C179.02 78.58 179.02 78.58 180.04 80.38 C179.71 82.69 179.38 85 179.04 87.38 C174.77 90.44 170.55 92.56 165.61 94.38 C164.89 94.66 164.16 94.93 163.42 95.22 C161.84 95.81 160.26 96.41 158.67 97 C154.27 98.65 149.88 100.33 145.48 102 C144.09 102.54 144.09 102.54 142.66 103.08 C132.1 107.1 121.6 111.27 111.11 115.44 C107.08 117.04 103.05 118.64 99.03 120.23 C98 120.64 96.97 121.05 95.91 121.47 C83.19 126.52 70.45 131.52 57.71 136.53 C55.88 137.25 54.04 137.97 52.21 138.69 C45.71 141.24 39.2 143.79 32.7 146.34 C30.34 147.26 27.98 148.19 25.62 149.12 C24.45 149.58 23.27 150.04 22.05 150.51 C21.1 150.88 20.15 151.26 19.17 151.64 C17.04 152.38 17.04 152.38 15.04 152.38 C15.04 171.85 15.04 191.32 15.04 211.38 C21.31 209.4 27.58 207.42 34.04 205.38 C41.99 203.36 49.97 201.79 58.04 200.38 C58.97 200.21 59.89 200.05 60.84 199.87 C91.48 194.62 126.57 194.62 157.2 199.86 C158.61 200.12 158.61 200.12 160.04 200.38 C161.63 200.67 161.63 200.67 163.25 200.96 C172.02 202.61 180.76 204.31 189.28 207.01 C193.33 208.26 196.98 208.73 201.23 208.82 C209.88 209.29 218 210.83 226 214.2 C233.9 217.82 240.65 222.15 246.91 228.25 C247.61 228.95 248.32 229.65 249.04 230.38 C249.66 230.92 250.29 231.46 250.93 232.01 C255.94 236.49 259.15 242.06 262.31 247.91 C264.36 252.02 265.82 255.96 267.04 260.38 C268.32 260.64 269.61 260.89 270.93 261.16 C276.11 262.31 280.97 264.03 285.92 265.94 C286.83 266.29 287.73 266.64 288.67 267 C306.79 274.12 324.59 282.61 339.61 295.2 C347.16 301.97 354.1 308.68 359.54 317.32 C362.35 323.05 364.71 328.47 365.44 334.87 C365.61 338.67 365.64 342.45 365.61 346.25 C365.63 347.53 365.65 348.8 365.68 350.11 C365.67 355.31 365.43 360 364.02 365.02 C361.59 371.54 358.66 377.14 354.38 382.63 C344.79 393.9 334.23 402.52 321.4 409.9 C308.38 417.15 295.05 423.3 281.04 428.38 C280.23 428.68 279.42 428.97 278.59 429.28 C238.57 443.78 195.4 450.62 153.04 453.38 C152.41 453.42 151.77 453.46 151.11 453.51 C137.34 454.4 123.59 454.58 109.79 454.57 C108.7 454.57 107.6 454.57 106.47 454.56 C47.65 454.48 -11.07 446.96 -66.62 427.04 C-74.96 423.97 -82.99 420.32 -90.96 416.38 C-91.63 416.05 -92.31 415.72 -93.01 415.38 C-107.49 408.31 -120.57 399.46 -131.92 387.96 C-137.33 382.19 -141.52 375.7 -144.82 368.5 C-146.66 363.8 -147.21 359.43 -147.43 354.39 C-147.45 351.81 -147.46 349.22 -147.46 346.63 C-147.5 344.71 -147.5 344.71 -147.54 342.75 C-147.55 337.51 -147.35 332.78 -145.93 327.72 C-143.22 320.47 -139.76 314.43 -134.96 308.38 C-134.46 307.72 -133.96 307.05 -133.45 306.37 C-126.49 297.71 -116.86 291.05 -107.52 285.19 C-105.34 283.91 -103.15 282.63 -100.96 281.38 C-99.34 280.43 -99.34 280.43 -97.69 279.46 C-79.76 269.38 -60.21 262.85 -40.55 257.07 C-35.92 255.7 -31.44 254.14 -26.96 252.38 C-26.88 251.69 -26.81 251 -26.73 250.29 C-26.16 246.24 -25.53 242.56 -23.73 238.86 C-21.31 235.06 -18.77 232.15 -15.34 229.24 C-14.7 228.71 -14.07 228.17 -13.42 227.62 C-12.94 227.21 -12.45 226.8 -11.96 226.38 C-11.95 224.73 -11.95 224.73 -11.95 223.04 C-11.89 196.24 -11.82 169.44 -11.72 142.64 C-11.68 129.68 -11.64 116.72 -11.61 103.76 C-11.59 92.47 -11.55 81.17 -11.51 69.88 C-11.48 63.9 -11.47 57.92 -11.46 51.94 C-11.45 46.31 -11.43 40.68 -11.4 35.05 C-11.39 32.98 -11.39 30.92 -11.39 28.85 C-11.39 26.03 -11.38 23.21 -11.36 20.38 C-11.36 19.16 -11.36 19.16 -11.37 17.91 C-11.33 14.92 -11.21 12.23 -10.36 9.35 C-9.6 7.47 -9.6 7.47 -7.96 4.38 C-5.39 2.05 -3.43 0.66 0 0 Z " fill="#B0D852" transform="translate(146.95703125,28.62109375)"/>
<path d="M0 0 C8.6 2.05 16.52 5.64 24.02 10.27 C28.36 13.16 32.02 16.71 35.7 20.38 C36.32 20.92 36.94 21.46 37.58 22.02 C42.57 26.47 45.77 31.99 48.9 37.82 C52.69 45.35 55.29 53.07 56.7 61.38 C57.58 71.06 57.5 81.22 55.2 90.7 C52.91 99.04 49.43 107.12 44.7 114.38 C41.41 118.77 37.64 122.59 33.7 126.38 C32.68 127.4 32.68 127.4 31.64 128.43 C26.32 133.43 20.27 137.24 13.7 140.38 C5.45 143.57 -3.05 146.09 -11.9 146.59 C-22.23 146.71 -31.58 145.66 -41.46 142.32 C-50.85 138.65 -59.01 133.55 -66.62 126.95 C-70.75 123.08 -74.2 119.11 -77.3 114.38 C-78.06 113.28 -78.06 113.28 -78.82 112.15 C-83.66 104.65 -86.94 96.38 -88.92 87.68 C-90.12 77.4 -90.45 66.14 -88.66 55.93 C-86.57 47.39 -83.04 39.78 -78.3 32.38 C-75.81 28.88 -73.15 25.6 -70.3 22.38 C-69.79 21.77 -69.27 21.16 -68.73 20.53 C-63.32 14.58 -56.33 10.2 -49.3 6.38 C-33.77 -0.82 -16.94 -2.89 0 0 Z " fill="#F6F3F8" transform="translate(360.3046875,238.6171875)"/>
<path d="M0 0 C11.25 3.37 11.25 3.37 15.47 5.04 C16.42 5.42 17.38 5.8 18.37 6.18 C19.38 6.59 20.39 6.99 21.43 7.4 C22.52 7.83 23.61 8.26 24.74 8.7 C28.3 10.11 31.87 11.52 35.44 12.94 C37.95 13.93 40.46 14.92 42.97 15.91 C46.84 17.44 50.71 18.96 54.57 20.49 C66.04 25.02 77.51 29.52 88.99 34.02 C92.12 35.25 95.24 36.47 98.36 37.7 C107.89 41.45 117.42 45.17 126.98 48.83 C131.29 50.49 135.6 52.15 139.91 53.81 C141.95 54.6 143.99 55.38 146.04 56.15 C148.84 57.22 151.64 58.29 154.44 59.38 C155.27 59.68 156.09 59.99 156.95 60.31 C159.03 61.13 161.03 61.94 163 63 C165.04 65.23 165.04 65.23 166 67 C165.67 69.31 165.34 71.62 165 74 C160.72 77.06 156.51 79.18 151.57 81 C150.48 81.42 150.48 81.42 149.37 81.84 C147.79 82.44 146.21 83.03 144.63 83.62 C140.23 85.27 135.84 86.95 131.44 88.62 C130.04 89.16 130.04 89.16 128.62 89.7 C118.06 93.72 107.56 97.89 97.06 102.06 C93.03 103.66 89 105.26 84.97 106.86 C83.94 107.27 82.91 107.68 81.85 108.1 C69.81 112.87 57.76 117.62 45.7 122.36 C43.27 123.31 40.83 124.27 38.4 125.23 C34.97 126.58 31.55 127.92 28.12 129.27 C27.14 129.66 26.15 130.05 25.13 130.45 C16.78 133.73 8.4 136.85 0 140 C0 93.8 0 47.6 0 0 Z " fill="#DA4A86" transform="translate(161,42)"/>
<path d="M0 0 C2.14 -0.13 3.94 -0.04 6.04 0.38 C9.42 2.19 9.42 2.19 12.04 4.38 C13.03 5.86 13.03 5.86 14.04 7.38 C15.04 11.82 15.17 16.09 15.17 20.63 C15.17 21.34 15.17 22.05 15.17 22.78 C15.18 25.16 15.18 27.54 15.17 29.92 C15.17 31.63 15.18 33.35 15.18 35.07 C15.18 39.77 15.18 44.48 15.18 49.18 C15.18 53.18 15.18 57.19 15.18 61.2 C15.18 72 15.18 82.79 15.17 93.59 C15.17 101.48 15.17 109.36 15.17 117.24 C15.15 199.63 14.74 282 14.04 364.38 C6.12 364.38 -1.8 364.38 -9.96 364.38 C-10.76 283.49 -11.11 202.61 -11.19 121.72 C-11.2 113.12 -11.22 104.53 -11.24 95.94 C-11.27 85.35 -11.28 74.77 -11.28 64.18 C-11.28 58.7 -11.29 53.21 -11.3 47.73 C-11.32 42.66 -11.32 37.6 -11.31 32.53 C-11.31 30.68 -11.32 28.84 -11.33 26.99 C-11.34 24.48 -11.33 21.97 -11.32 19.45 C-11.33 18.73 -11.34 18.01 -11.35 17.27 C-11.32 14.56 -11.15 12.01 -10.36 9.41 C-9.6 7.53 -9.6 7.53 -7.96 4.38 C-5.39 2.05 -3.43 0.66 0 0 Z " fill="#F7F4F9" transform="translate(146.95703125,28.62109375)"/>
<path d="M0 0 C1.76 2.64 2.69 4.69 3.75 7.62 C6.69 15.06 10.98 20.97 16.19 27 C26.11 37.68 37.98 45.71 50.81 52.48 C92.06 73.58 137.17 83.92 182.9 89.63 C190.92 90.59 198.94 91.44 207 92 C208.26 92.09 209.52 92.18 210.82 92.27 C225.64 93.21 240.47 93.2 255.31 93.19 C255.98 93.19 256.65 93.19 257.33 93.19 C276.96 93.17 296.46 93.11 316 91 C317.44 90.85 318.88 90.71 320.32 90.56 C366.97 85.74 413.5 75.46 456.04 55.3 C470.95 48 484.39 38.91 496 27 C501.55 20.92 505.86 14.62 509 7 C509.8 4.67 510.43 2.4 511 0 C511.33 0 511.66 0 512 0 C512.43 5.25 512.46 10.17 511.17 15.3 C508.78 21.95 505.68 27.68 501.34 33.25 C491.74 44.52 481.19 53.14 468.36 60.52 C455.34 67.78 442.01 73.92 428 79 C427.19 79.3 426.38 79.59 425.54 79.9 C385.52 94.4 342.36 101.24 300 104 C299.36 104.04 298.72 104.08 298.07 104.13 C284.3 105.02 270.55 105.2 256.75 105.19 C255.65 105.19 254.55 105.19 253.42 105.19 C194.61 105.1 135.89 97.58 80.34 77.66 C72 74.59 63.96 70.94 56 67 C55.32 66.67 54.65 66.34 53.95 66 C39.47 58.93 26.39 50.08 15.03 38.58 C9.47 32.64 5.37 25.93 1.85 18.6 C0.54 15.26 0.02 12.38 -0.17 8.78 C-0.19 5.85 -0.13 2.93 0 0 Z " fill="#90B607" transform="translate(0,378)"/>
<path d="M0 0 C2.07 0.08 2.07 0.08 4.06 0.44 C7.44 2.19 7.44 2.19 10.06 4.44 C11.21 6.17 11.21 6.17 12.06 8.44 C12.31 11.44 12.31 11.44 12.3 15.03 C12.3 15.69 12.31 16.35 12.31 17.03 C12.31 19.25 12.3 21.46 12.29 23.67 C12.29 25.26 12.29 26.84 12.29 28.43 C12.29 32.74 12.28 37.05 12.27 41.35 C12.25 45.86 12.25 50.36 12.25 54.86 C12.24 63.38 12.23 71.91 12.21 80.43 C12.18 90.14 12.17 99.84 12.16 109.55 C12.14 129.51 12.11 149.47 12.06 169.44 C4.14 169.44 -3.78 169.44 -11.94 169.44 C-12.16 148.98 -12.36 128.51 -12.54 108.05 C-12.62 98.55 -12.71 89.05 -12.81 79.55 C-12.9 71.26 -12.98 62.98 -13.04 54.7 C-13.08 50.31 -13.12 45.93 -13.18 41.54 C-13.23 37.41 -13.26 33.28 -13.28 29.15 C-13.29 27.64 -13.31 26.13 -13.34 24.62 C-13.52 13.29 -13.52 13.29 -12.1 8.78 C-11.06 6.6 -11.06 6.6 -8.94 3.44 C-8.19 2.78 -7.45 2.12 -6.69 1.44 C-3.94 0.44 -3.94 0.44 0 0 Z " fill="#E8E1EE" transform="translate(148.9375,223.5625)"/>
<path d="M0 0 C4.41 3.33 7.6 6.55 10.62 11.19 C15.58 19.41 19.54 27.71 21.49 37.16 C22.85 47.44 23.04 58.16 20.97 68.36 C18.79 77.42 15.09 86.19 10 94 C6.72 98.39 2.94 102.21 -1 106 C-1.68 106.68 -2.36 107.35 -3.06 108.05 C-8.38 113.04 -14.43 116.86 -21 120 C-29.24 123.18 -37.74 125.7 -46.59 126.2 C-56.93 126.33 -66.27 125.28 -76.15 121.93 C-85.68 118.22 -93.87 113.03 -101.56 106.31 C-103.91 104.2 -105.73 102.49 -107.28 99.73 C-107.52 99.16 -107.75 98.59 -108 98 C-104.98 99.43 -102.14 101.1 -99.28 102.82 C-92.45 106.87 -85.78 110.1 -78 112 C-73.68 112.81 -69.36 113.47 -65 114 C-65.08 112.8 -65.17 111.61 -65.25 110.38 C-65.24 108.17 -65.24 108.17 -65 106 C-63.38 102.69 -63.38 102.69 -61 100 C-58.19 98.12 -58.19 98.12 -55 97 C-51.5 96.62 -51.5 96.62 -48 97 C-44.81 98.19 -44.81 98.19 -42 100 C-39.69 102.38 -39.69 102.38 -38 105 C-37.62 106.66 -37.28 108.32 -37 110 C-23.72 103.74 -23.72 103.74 -12 95 C-10.99 94.13 -10.99 94.13 -9.96 93.24 C-3.95 87.71 0.04 81.08 4 74 C5.01 72.01 6.02 70.01 7 68 C5.95 67.92 4.9 67.83 3.81 67.75 C1.93 67.38 1.93 67.38 0 67 C-2.81 65.25 -2.81 65.25 -5 63 C-6.31 60.75 -6.31 60.75 -7 58 C-7.23 55.12 -7.34 52.81 -7 50 C-5.94 46.75 -5.94 46.75 -4 44 C-1.48 42.12 0.12 40.99 3 40 C5.77 39.7 8.2 39.8 11 40 C11.48 33.57 10.93 27.77 9.38 21.5 C7.69 15.57 5.43 10.45 2.27 5.17 C1 3 1 3 0 0 Z " fill="#E7E1ED" transform="translate(395,259)"/>
<path d="M0 0 C2.37 0.92 4.7 1.93 7 3 C7.99 4.48 7.99 4.48 9 6 C8.67 8.31 8.34 10.62 8 13 C3.72 16.06 -0.49 18.18 -5.43 20 C-6.15 20.28 -6.88 20.55 -7.63 20.84 C-9.21 21.44 -10.79 22.03 -12.37 22.62 C-16.77 24.27 -21.16 25.95 -25.56 27.62 C-26.96 28.16 -26.96 28.16 -28.38 28.7 C-38.94 32.72 -49.44 36.89 -59.94 41.06 C-63.97 42.66 -68 44.26 -72.03 45.86 C-73.06 46.27 -74.09 46.68 -75.15 47.1 C-87.19 51.87 -99.24 56.62 -111.3 61.36 C-113.73 62.31 -116.17 63.27 -118.6 64.23 C-131.37 69.25 -144.14 74.23 -157 79 C-157 73.39 -157 67.78 -157 62 C-155.6 61.45 -154.19 60.9 -152.75 60.33 C-151.81 59.96 -150.86 59.59 -149.89 59.21 C-147.73 58.36 -145.57 57.51 -143.41 56.66 C-137.88 54.49 -132.34 52.31 -126.8 50.14 C-123.54 48.85 -120.28 47.57 -117.02 46.29 C-116.36 46.03 -115.7 45.77 -115.01 45.5 C-105.45 41.75 -95.89 37.99 -86.32 34.24 C-65.2 25.95 -44.08 17.65 -22.98 9.31 C-21.09 8.57 -19.21 7.82 -17.32 7.08 C-14.76 6.07 -12.19 5.06 -9.63 4.04 C-8.88 3.75 -8.13 3.45 -7.35 3.14 C-3.63 1.68 -3.63 1.68 0 0 Z " fill="#BD3C85" transform="translate(318,103)"/>
<path d="M0 0 C16.5 0 16.5 0 23.88 1.56 C24.71 1.74 25.55 1.91 26.42 2.09 C34.74 3.94 42.54 6.86 50 11 C52.16 12.56 54.03 14.19 56 16 C56.66 16.99 57.32 17.98 58 19 C57.61 24.76 57.61 24.76 57 27 C55.36 29.55 55.36 29.55 53 32 C44.71 37.2 35.48 40.71 26 43 C17.04 44.89 9.39 45 0 45 C0 30.15 0 15.3 0 0 Z " fill="#7E9B02" transform="translate(161,347)"/>
<path d="M0 0 C0 14.85 0 29.7 0 45 C-6.55 45 -11.88 44.54 -18.19 43.31 C-19.11 43.13 -20.03 42.95 -20.99 42.77 C-30.37 40.85 -38.9 38.1 -47.12 33.06 C-49.25 31.56 -49.25 31.56 -51 30 C-53.06 26.62 -53.06 26.62 -54 24 C-53.75 21.31 -53.75 21.31 -53 18 C-51.4 15.55 -51.4 15.55 -49 13 C-46.6 11.47 -44.35 10.18 -41.81 8.94 C-41.12 8.59 -40.42 8.25 -39.71 7.9 C-32.1 4.31 -24.23 2.52 -16 1 C-15.05 0.8 -14.11 0.61 -13.13 0.4 C-8.79 -0.16 -4.38 0 0 0 Z " fill="#7E9B02" transform="translate(136,347)"/>
<path d="M0 0 C2.6 0.37 2.6 0.37 4.94 0.94 C7.88 2.62 7.88 2.62 9.94 4.94 C11.81 7.62 11.81 7.62 12.94 10.94 C13.08 14.08 12.76 16.9 11.94 19.94 C10.79 22.21 9.53 23.93 7.94 25.94 C5.18 27.24 2.87 28.25 -0.06 28.94 C-2.55 28.86 -4.63 28.47 -7.02 27.8 C-9.06 26.94 -9.06 26.94 -12 24.62 C-14.06 21.94 -14.06 21.94 -15.38 19.5 C-16.06 16.94 -16.06 16.94 -16.5 14.12 C-16.06 10.94 -16.06 10.94 -15.15 8.88 C-13.93 6.73 -12.64 4.84 -11.06 2.94 C-10.18 2.26 -9.29 1.58 -8.38 0.88 C-5.23 -0.01 -3.21 -0.18 0 0 Z " fill="#E8E1EF" transform="translate(310.0625,317.0625)"/>
<path d="M0 0 C2.4 0.19 4.61 0.47 6.95 1.05 C9.48 2.48 10.9 3.9 12.95 6.05 C13.63 6.95 13.63 6.95 14.32 7.87 C15.1 10.59 15.28 13.2 15.2 16.03 C14.95 18.05 14.95 18.05 13.76 21.3 C11.95 24.05 11.95 24.05 9.82 26.37 C6.95 28.05 6.95 28.05 4.84 28.62 C2.48 29 0.33 29.16 -2.05 29.05 C-5.36 27.93 -5.36 27.93 -8.05 26.05 C-10.09 23.79 -11.69 21.77 -13.05 19.05 C-13.36 16.03 -13.34 13.08 -13.05 10.05 C-11.86 7.24 -11.86 7.24 -10.05 5.05 C-7.55 2.8 -7.55 2.8 -5.05 1.05 C-2.05 0.05 -2.05 0.05 0 0 Z " fill="#E8E1EF" transform="translate(361.05078125,316.9453125)"/>
</svg>
