<?xml version="1.0" encoding="UTF-8"?>
<!-- Generator: visioncortex VTracer 0.6.4 -->
<svg version="1.1" xmlns="http://www.w3.org/2000/svg" width="512" height="512">
<path d="M0 0 C20.05 3.52 41.28 13.4 58.88 23.44 C65.73 27.45 72.07 31.7 78 37 C78.88 37.76 79.77 38.53 80.68 39.32 C87.39 45.22 87.39 45.22 90.09 48.69 C90.72 49.45 91.35 50.21 92 51 C95.12 52.35 95.12 52.35 98 53 C108.44 66.88 113.76 83.42 118.86 99.8 C121.42 107.98 123.93 115.76 128.41 123.14 C129.99 125.15 129.99 125.15 132.48 126.74 C133.31 127.16 134.14 127.57 135 128 C138.21 128.25 138.21 128.25 141 128 C142.71 126.38 144.37 124.71 146 123 C146.98 120.05 147.32 117.55 147.3 114.45 C146.8 110.37 145.26 106.65 143.78 102.83 C143.39 101.43 143.39 101.43 143 100 C143.38 97.14 143.38 97.14 144 95 C146.48 94.5 146.48 94.5 149 94 C156.41 99.6 161.83 107.01 166.88 114.75 C169.33 118.75 171.49 122.55 173 127 C173.25 129.75 173.25 129.75 173 132 C172.67 132.99 172.34 133.98 172 135 C172.31 137.15 172.31 137.15 172.93 139.48 C174.15 145.14 174.26 150.54 174.19 156.31 C174.19 157.76 174.19 157.76 174.19 159.23 C174.16 163.64 173.97 167.68 173 172 C173.84 172.09 174.67 172.19 175.53 172.28 C179.54 173.11 182.89 174.65 186.5 176.5 C187.2 176.85 187.89 177.21 188.61 177.57 C197.81 182.35 206.46 187.79 214.44 194.44 C215.92 195.67 217.44 196.87 219 198 C220.2 198.33 221.39 198.66 222.62 199 C223.74 199.33 224.85 199.66 226 200 C234.43 206.48 240.93 216.12 246.61 225.02 C255.88 240.01 261.84 255.47 265.53 272.69 C268.85 288.9 269.06 305.38 266.81 321.75 C264.25 338.5 258.93 354.23 250.84 369.14 C245.26 378.96 238.67 387.72 231 396 C230.5 396.55 229.99 397.1 229.47 397.66 C218.07 409.91 205.02 419.32 190.14 426.96 C180.27 431.75 168.94 436.62 158 438 C155.36 437.63 153.38 437.19 151 436 C148.66 436.31 146.33 436.65 144 437 C141.66 437.1 139.32 437.15 136.98 437.17 C136.32 437.17 135.67 437.18 134.99 437.18 C132.87 437.19 130.75 437.19 128.62 437.19 C127.89 437.19 127.16 437.19 126.41 437.19 C98.56 437.12 71.38 434.4 45 425 C40.27 423.23 35.56 421.39 30.88 419.5 C29.75 419.05 28.62 418.6 27.46 418.13 C19.87 415 12.06 411.7 5.92 406.1 C2.54 402.61 0.27 398.88 -1.81 394.5 C-4.02 389.49 -5.65 384.34 -6.22 378.88 C-6.34 376.69 -6.38 374.51 -6.38 372.31 C-6.38 371.53 -6.38 370.75 -6.38 369.95 C-6.29 364.91 -5.55 360.63 -3.94 355.81 C-3.55 354.85 -3.17 353.89 -2.78 352.89 C-1.81 349.95 -1.81 349.95 -2.26 346.58 C-3.26 341.75 -4.6 337.05 -5.96 332.3 C-8.95 320.6 -9.26 309.17 -9.12 297.19 C-9.11 295.61 -9.11 294.03 -9.1 292.45 C-9.08 288.63 -9.04 284.82 -9 281 C-10.96 279.61 -12.96 278.28 -15 277 C-18.25 276.66 -18.25 276.66 -21 277 C-33.27 267.78 -43.65 258.02 -52.18 245.23 C-57.99 236.12 -62.1 226.52 -64.75 216.05 C-66.69 206.2 -66.62 196.1 -65.61 186.14 C-64.2 177.52 -61.2 170.19 -57.07 162.57 C-54.72 158.41 -52.06 154.67 -49 151 C-47.02 151 -45.04 151 -43 151 C-42.75 151.78 -42.5 152.57 -42.25 153.38 C-41.84 154.57 -41.42 155.77 -41 157 C-40.6 158.18 -40.6 158.18 -40.19 159.38 C-38.64 163.61 -37.03 167.35 -34.19 170.88 C-32.1 173.11 -30 174.8 -27.38 176.38 C-24.7 177.66 -22.84 178.45 -20 179 C-18.17 179.12 -16.33 179.17 -14.5 179.19 C-13.56 179.2 -12.62 179.22 -11.66 179.23 C-8.98 179.14 -8.98 179.14 -6.66 177.99 C-6.11 177.66 -5.56 177.34 -5 177 C-5.57 176.47 -6.14 175.93 -6.72 175.38 C-15.15 167.25 -21.06 158.55 -26.22 148.1 C-30.76 138.55 -33.38 128.92 -34.69 118.41 C-35.45 110.12 -35.13 102.38 -33.63 94.18 C-33.42 93.46 -33.22 92.74 -33 92 C-32.34 91.34 -31.68 90.68 -31 90 C-29.35 90.33 -27.7 90.66 -26 91 C-24.96 94.39 -24.96 97.47 -25 101 C-19.37 108.4 -13.65 114.67 -6 120 C-2.72 122.1 0.6 124.09 4 126 C3.52 125.11 3.04 124.21 2.54 123.29 C-0.7 117.14 -3.76 111.31 -4.79 104.36 C-5.48 96.57 -4.81 89.61 -3 82 C-1.51 81.5 -1.51 81.5 0 81 C0.66 81.33 1.32 81.66 2 82 C5.09 82.09 7.99 81.73 11 81 C14.48 79.02 14.48 79.02 17 76 C18.57 72.97 19.79 70.39 20.3 67.02 C20.44 64.88 20.47 62.77 20.44 60.62 C20.43 59.84 20.42 59.06 20.41 58.26 C20.09 46.3 16.71 34.96 12.5 23.83 C10.11 17.87 7.04 12.39 3.73 6.89 C2.37 4.62 1.13 2.38 0 0 Z " fill="#3A3CE8" transform="translate(161,37)"/>
<path d="M0 0 C9.26 2.15 17.95 5.82 26.13 10.63 C34.98 16.59 42.88 23.81 49.37 32.27 C55.03 40.29 59.44 48.52 62.25 57.94 C62.61 59.08 62.97 60.23 63.34 61.41 C64.8 67.41 64.58 73.54 64.56 79.69 C64.58 80.89 64.59 82.09 64.61 83.32 C64.62 92.56 63.06 100.58 60.11 109.31 C55.86 119.38 50.97 128.49 43.62 136.62 C36.95 143.74 29.52 149.18 20.86 153.71 C17.69 155.22 14.5 156.62 11.25 157.94 C10.47 158.25 9.69 158.57 8.89 158.9 C0.28 162.07 -8.88 163.03 -18 163.31 C-27.77 163.16 -36.89 160.91 -46.11 157.8 C-54.86 154.38 -62.78 149.59 -69.94 143.5 C-70.87 142.65 -71.79 141.81 -72.75 140.94 C-74.99 146.78 -77 152.66 -78.88 158.62 C-79.14 159.45 -79.4 160.28 -79.68 161.13 C-82.43 169.88 -83.22 177.88 -82.87 187.02 C-82.66 190.4 -82.05 193.41 -80.9 196.59 C-76.9 204.75 -70.72 211.42 -64.34 217.79 C-60.48 221.48 -56.43 224.33 -51.71 226.85 C-49.75 227.94 -49.75 227.94 -47.75 229.94 C-55.65 230.13 -63.15 229.73 -70.94 228.38 C-71.97 228.2 -72.99 228.02 -74.05 227.84 C-97.07 223.65 -120.99 216.69 -141.3 204.83 C-145.24 202.45 -148.32 199.79 -151.22 196.21 C-154.79 190.91 -157.07 185.24 -158.86 179.14 C-160.58 171.92 -160.42 164.3 -159.75 156.94 C-158.32 149.6 -155.58 142.99 -152 136.45 C-150.29 133 -148.75 129.66 -147.75 125.94 C-147.37 122.53 -147.37 119.18 -147.44 115.75 C-147.43 114.87 -147.43 114 -147.43 113.1 C-147.46 109.46 -147.54 106.52 -148.77 103.07 C-149.09 102.37 -149.42 101.66 -149.75 100.94 C-149.75 99.62 -149.75 98.3 -149.75 96.94 C-148 97.2 -148 97.2 -145.75 97.94 C-141.79 101.25 -138.75 105.26 -136.12 109.68 C-134.13 113.87 -132.91 117.77 -132.27 122.37 C-131.93 130.81 -133.53 138.21 -135.97 146.24 C-137.07 149.9 -137.93 153.29 -138.01 157.13 C-137.62 162.83 -135.9 167.68 -133.75 172.94 C-132.21 176.02 -130.56 179 -128.75 181.94 C-128.81 180.85 -128.87 179.76 -128.93 178.63 C-129.28 169.04 -128.64 160.33 -125.7 151.17 C-122.85 143.12 -119.14 135.4 -115.57 127.65 C-112.39 120.72 -109.38 113.81 -107 106.56 C-106.77 105.87 -106.55 105.19 -106.31 104.48 C-103.16 94.42 -103.21 84.02 -103.58 73.58 C-104.05 66.4 -105.77 59.56 -108.61 52.93 C-110.49 48.84 -112.57 44.88 -114.75 40.94 C-115.08 40.28 -115.41 39.62 -115.75 38.94 C-111.94 40.2 -109.04 42.06 -105.88 44.52 C-105.32 44.97 -104.76 45.41 -104.19 45.88 C-103.06 46.76 -101.93 47.64 -100.81 48.53 C-99.8 49.32 -98.79 50.12 -97.75 50.94 C-96.42 51.94 -95.09 52.95 -93.75 53.94 C-93.65 53.24 -93.55 52.55 -93.45 51.83 C-92.06 46.06 -88.76 41 -85.75 35.94 C-80.7 28.39 -74.37 21.18 -67.11 15.7 C-57.59 8.97 -47.59 3.74 -36.31 0.62 C-24.46 -2.33 -11.99 -2.02 0 0 Z " fill="#FDFDFE" transform="translate(314.75,243.0625)"/>
<path d="M0 0 C20.05 3.52 41.28 13.4 58.88 23.44 C65.73 27.45 72.07 31.7 78 37 C78.88 37.76 79.77 38.53 80.68 39.32 C87.39 45.22 87.39 45.22 90.09 48.69 C90.72 49.45 91.35 50.21 92 51 C95.12 52.35 95.12 52.35 98 53 C108.44 66.88 113.76 83.42 118.86 99.8 C121.42 107.98 123.93 115.76 128.41 123.14 C129.99 125.15 129.99 125.15 132.48 126.74 C133.31 127.16 134.14 127.57 135 128 C138.21 128.25 138.21 128.25 141 128 C142.71 126.38 144.37 124.71 146 123 C146.98 120.05 147.32 117.55 147.3 114.45 C146.8 110.37 145.26 106.65 143.78 102.83 C143.39 101.43 143.39 101.43 143 100 C143.38 97.14 143.38 97.14 144 95 C146.48 94.5 146.48 94.5 149 94 C156.41 99.6 161.83 107.01 166.88 114.75 C169.33 118.75 171.49 122.55 173 127 C173.25 129.75 173.25 129.75 173 132 C172.67 132.99 172.34 133.98 172 135 C172.31 137.15 172.31 137.15 172.93 139.48 C174.15 145.16 174.26 150.58 174.19 156.38 C174.19 157.83 174.19 157.83 174.19 159.32 C174.16 163.39 174.14 167.07 173 171 C166.43 170.28 160.14 168.97 153.71 167.46 C139.88 164.28 125.79 163.98 111.7 165.68 C95.11 167.99 80.14 172.05 65.25 179.75 C49.83 188.05 36.92 198.58 24.88 211.25 C13.99 223.6 6.19 237.79 0 253 C-3.33 262.07 -5.62 271.44 -7 281 C-9.49 280.01 -11.98 279.01 -14.44 277.94 C-16.97 276.88 -16.97 276.88 -19.71 276.8 C-23 276 -23 276 -24.71 274.91 C-26.6 273.42 -28.4 271.86 -30.19 270.25 C-30.84 269.67 -31.5 269.09 -32.17 268.49 C-42.28 259.31 -50.52 249.06 -57 237 C-61.62 227.43 -64.74 217.56 -66 207 C-66.5 197.46 -66.28 188.14 -64.18 178.77 C-61.41 169.89 -57.05 161.47 -51.5 154 C-50.67 153.01 -49.85 152.02 -49 151 C-47.02 151 -45.04 151 -43 151 C-42.75 151.78 -42.5 152.57 -42.25 153.38 C-41.84 154.57 -41.42 155.77 -41 157 C-40.6 158.18 -40.6 158.18 -40.19 159.38 C-38.64 163.61 -37.03 167.35 -34.19 170.88 C-32.1 173.11 -30 174.8 -27.38 176.38 C-24.7 177.66 -22.84 178.45 -20 179 C-18.17 179.12 -16.33 179.17 -14.5 179.19 C-13.56 179.2 -12.62 179.22 -11.66 179.23 C-8.98 179.14 -8.98 179.14 -6.66 177.99 C-6.11 177.66 -5.56 177.34 -5 177 C-5.57 176.47 -6.14 175.93 -6.72 175.38 C-15.15 167.25 -21.06 158.55 -26.22 148.1 C-30.76 138.55 -33.38 128.92 -34.69 118.41 C-35.45 110.12 -35.13 102.38 -33.63 94.18 C-33.42 93.46 -33.22 92.74 -33 92 C-32.34 91.34 -31.68 90.68 -31 90 C-29.35 90.33 -27.7 90.66 -26 91 C-24.96 94.39 -24.96 97.47 -25 101 C-19.37 108.4 -13.65 114.67 -6 120 C-2.72 122.1 0.6 124.09 4 126 C3.52 125.11 3.04 124.21 2.54 123.29 C-0.7 117.14 -3.76 111.31 -4.79 104.36 C-5.48 96.57 -4.81 89.61 -3 82 C-1.51 81.5 -1.51 81.5 0 81 C0.66 81.33 1.32 81.66 2 82 C5.09 82.09 7.99 81.73 11 81 C14.48 79.02 14.48 79.02 17 76 C18.57 72.97 19.79 70.39 20.3 67.02 C20.44 64.88 20.47 62.77 20.44 60.62 C20.43 59.84 20.42 59.06 20.41 58.26 C20.09 46.3 16.71 34.96 12.5 23.83 C10.11 17.87 7.04 12.39 3.73 6.89 C2.37 4.62 1.13 2.38 0 0 Z " fill="#FDE242" transform="translate(161,37)"/>
<path d="M0 0 C5.67 1.94 10.03 5.48 14.65 9.16 C21.74 15.03 27.39 21.74 32.31 29.5 C38.6 40.28 43.06 51.15 45.57 63.39 C47.07 72.52 47 82.11 45.3 91.21 C44.42 95.21 43.24 99.11 42 103 C41.64 104.16 41.64 104.16 41.27 105.34 C39.99 109.43 38.7 113.51 37.39 117.6 C36.93 119.07 36.46 120.53 36 122 C35.65 123.09 35.31 124.18 34.95 125.31 C32.96 132.25 32.47 139.06 32.73 146.24 C33.02 150.28 33.47 153.84 34.85 157.65 C38.85 165.81 45.03 172.48 51.41 178.85 C55.27 182.54 59.32 185.39 64.04 187.91 C66 189 66 189 68 191 C60.1 191.19 52.6 190.79 44.81 189.44 C43.78 189.26 42.76 189.08 41.7 188.9 C18.68 184.71 -5.24 177.75 -25.55 165.89 C-29.49 163.51 -32.57 160.85 -35.47 157.27 C-39.04 151.97 -41.32 146.31 -43.11 140.2 C-44.83 132.98 -44.67 125.36 -44 118 C-42.57 110.66 -39.83 104.05 -36.25 97.51 C-34.54 94.07 -33 90.72 -32 87 C-31.62 83.59 -31.62 80.24 -31.69 76.81 C-31.68 75.94 -31.68 75.06 -31.68 74.16 C-31.71 70.52 -31.79 67.58 -33.02 64.14 C-33.5 63.08 -33.5 63.08 -34 62 C-34 60.68 -34 59.36 -34 58 C-32.25 58.26 -32.25 58.26 -30 59 C-26.04 62.31 -23 66.32 -20.37 70.74 C-18.38 74.93 -17.16 78.83 -16.52 83.43 C-16.18 91.87 -17.78 99.27 -20.22 107.3 C-21.32 110.97 -22.18 114.36 -22.26 118.2 C-21.87 123.89 -20.15 128.74 -18 134 C-16.46 137.09 -14.81 140.06 -13 143 C-13.06 141.91 -13.12 140.82 -13.18 139.7 C-13.53 130.1 -12.89 121.39 -9.95 112.23 C-7.1 104.18 -3.39 96.46 0.18 88.71 C3.36 81.78 6.37 74.87 8.75 67.62 C8.98 66.94 9.2 66.25 9.44 65.54 C12.59 55.48 12.54 45.08 12.17 34.64 C11.7 27.46 9.98 20.62 7.14 13.99 C5.26 9.9 3.18 5.94 1 2 C0.5 1.01 0.5 1.01 0 0 Z " fill="#FCE144" transform="translate(199,282)"/>
<path d="M0 0 C3.34 0.29 5.77 0.76 8.83 2.07 C12.11 3.84 15.06 5.67 17.71 8.32 C20.02 11.2 20.02 11.2 20.99 12.99 C22.31 17.26 22.04 21.59 21.95 26.02 C21.74 28.88 21.35 31.53 20.71 34.32 C21.23 34.68 21.75 35.05 22.28 35.42 C26.82 38.69 30.45 41.76 33.71 46.32 C35.64 50.27 37.19 53.95 37.71 58.32 C37.78 58.93 37.86 59.54 37.94 60.17 C38.18 63.81 37.81 66.9 36.91 70.44 C35.32 75.07 33.53 79.14 30.72 83.16 C27.06 87.48 23.27 90.84 18.46 93.82 C14.37 96.12 10.42 97.96 5.82 98.93 C0.09 99.65 -5.53 99.77 -11.29 99.32 C-15.93 98.25 -19.68 96.3 -23.73 93.85 C-26.97 91.6 -29.57 89.27 -31.96 86.14 C-33.48 83.54 -34.47 81.22 -35.29 78.32 C-35.95 73.53 -36 69.11 -35.29 64.32 C-33.6 59.69 -30.93 56.17 -27.98 52.26 C-27.42 51.62 -26.87 50.98 -26.29 50.32 C-26.79 48.84 -26.79 48.84 -27.29 47.32 C-28.22 46.6 -29.15 45.88 -30.11 45.13 C-31.84 43.72 -33.23 42.4 -34.58 40.61 C-35.77 38.52 -36.6 36.62 -37.29 34.32 C-37.83 30.55 -37.83 27.09 -37.29 23.32 C-36.13 19.6 -34.22 16.68 -32.04 13.48 C-29.92 10.72 -27.74 8.64 -24.89 6.62 C-16.54 1.44 -9.85 -0.14 0 0 Z " fill="#191A8B" transform="translate(300.29296875,272.6796875)"/>
<path d="M0 0 C3.21 0.38 5.76 0.88 8.68 2.31 C18.45 8.57 25.87 16.33 32.97 25.43 C39.51 34.1 44.45 43.38 47.69 53.75 C48.99 58.11 50.13 62.5 51.24 66.92 C53.94 78.11 53.94 78.11 58.79 88.5 C60.11 90.29 60.11 90.29 63 92 C62.03 92.21 61.06 92.42 60.06 92.63 C49.77 94.95 40.48 98.39 31 103 C29.54 103.71 29.54 103.71 28.04 104.43 C13.08 112.17 0.42 123.11 -11.12 135.25 C-20.88 146.27 -27.77 158.75 -34 172 C-34.99 171.67 -35.98 171.34 -37 171 C-45.24 152.41 -45.24 152.41 -46 142 C-46.02 140 -46.03 138 -46 136 C-44.67 136.74 -44.67 136.74 -43.31 137.5 C-40.74 138.6 -38.66 139.03 -35.85 139.3 C-31.06 139.4 -27 139.33 -22.44 137.81 C-19.69 135.77 -17.9 133.85 -16 131 C-14.82 128.78 -14.82 128.78 -14 126 C-13.76 123.28 -13.62 120.72 -13.62 118 C-13.63 117.25 -13.63 116.51 -13.63 115.73 C-13.76 109.74 -14.85 104.43 -16.84 98.75 C-18.3 95.29 -20.01 92.19 -22 89 C-22 88.34 -22 87.68 -22 87 C-17.71 87.69 -14.13 88.43 -10.25 90.4 C-3.69 94.31 -3.69 94.31 -1 97 C-0.64 88.72 -0.42 80.82 -2.62 72.75 C-4.55 66.77 -7.05 61.18 -9.83 55.55 C-10.21 54.71 -10.6 53.87 -11 53 C-11 52.34 -11 51.68 -11 51 C-6.25 52.87 -6.25 52.87 -4 54 C-1.13 54.33 -1.13 54.33 2 54 C4.77 52.99 4.77 52.99 7 51 C9.03 48.54 9.03 48.54 10 45 C10.7 40.88 10.52 37.14 10 33 C7.89 22.96 5.19 13.05 0.76 3.78 C0.38 2.9 0.38 2.9 0 2 C0 1.34 0 0.68 0 0 Z " fill="#FAA73D" transform="translate(197,113)"/>
<path d="M0 0 C2.47 0.5 2.47 0.5 5 1 C5.56 2.69 5.56 2.69 6 5 C5.85 5.68 5.7 6.36 5.54 7.05 C3.96 15.64 4.23 25.39 5.5 34 C7.03 41.76 9.6 48.87 13 56 C13.42 56.91 13.84 57.83 14.27 58.77 C18.23 66.74 23.74 72.79 30 79 C32.6 81.42 35.24 83.76 38 86 C38 87.65 38 89.3 38 91 C34.21 93.5 30.35 95.67 26 97 C20.05 97.95 13.96 97.79 8 97 C4.55 96.16 1.94 94.96 -1 93 C-1.69 92.58 -2.38 92.15 -3.1 91.71 C-6.11 89.69 -8.5 87.61 -10.8 84.79 C-12.35 82.56 -13.78 80.43 -15 78 C-15.66 75.22 -15.66 75.22 -16 73 C-16.66 73 -17.32 73 -18 73 C-18.25 73.64 -18.5 74.28 -18.75 74.94 C-19.45 76.65 -20.17 78.35 -20.95 80.02 C-21.3 80.76 -21.64 81.49 -22 82.25 C-22.33 82.94 -22.66 83.62 -23 84.33 C-25.19 90.18 -26.11 95.82 -26.27 102.07 C-26.27 104.23 -26.27 106.4 -26.25 108.56 C-26.26 109.65 -26.27 110.73 -26.27 111.85 C-26.26 119.25 -25.25 125.17 -22.96 132.2 C-18.68 143.59 -13.06 153.26 -5.18 162.54 C0.96 169.47 7.76 175.23 15 181 C15 182.65 15 184.3 15 186 C13.35 186.33 11.7 186.66 10 187 C-2.27 177.78 -12.65 168.02 -21.18 155.23 C-26.99 146.12 -31.1 136.52 -33.75 126.05 C-35.69 116.2 -35.62 106.1 -34.61 96.14 C-33.2 87.52 -30.2 80.19 -26.07 72.57 C-23.72 68.41 -21.06 64.67 -18 61 C-16.02 61 -14.04 61 -12 61 C-11.75 61.78 -11.5 62.57 -11.25 63.38 C-10.63 65.17 -10.63 65.17 -10 67 C-9.73 67.79 -9.46 68.57 -9.19 69.38 C-7.64 73.61 -6.03 77.35 -3.19 80.88 C-1.1 83.11 1 84.8 3.62 86.38 C6.3 87.66 8.16 88.45 11 89 C12.83 89.12 14.67 89.17 16.5 89.19 C17.44 89.2 18.38 89.22 19.34 89.23 C22.02 89.14 22.02 89.14 24.34 87.99 C24.89 87.66 25.44 87.34 26 87 C25.43 86.47 24.86 85.93 24.28 85.38 C15.85 77.25 9.94 68.55 4.78 58.1 C0.24 48.55 -2.38 38.92 -3.69 28.41 C-4.45 20.12 -4.13 12.38 -2.63 4.18 C-2.42 3.46 -2.22 2.74 -2 2 C-1.34 1.34 -0.68 0.68 0 0 Z " fill="#1B1B89" transform="translate(130,127)"/>
<path d="M0 0 C1.65 0 3.3 0 5 0 C17.09 11.3 26.4 24.36 34 39 C41.4 53.95 45.86 70.49 47.72 87.05 C49.03 105.49 47.9 123.85 42.81 141.69 C37.96 157.5 30.63 172.5 20.69 185.75 C17.63 189.66 14.37 193.36 11 197 C10.5 197.55 9.99 198.1 9.47 198.66 C-1.93 210.91 -14.98 220.32 -29.86 227.96 C-39.73 232.75 -51.06 237.62 -62 239 C-64.82 238.56 -64.82 238.56 -67 238 C-67.33 236.68 -67.66 235.36 -68 234 C-66.76 232.58 -66.76 232.58 -65 231 C-63.03 230.25 -63.03 230.25 -60.78 229.71 C-59.94 229.5 -59.1 229.28 -58.23 229.06 C-57.33 228.83 -56.43 228.61 -55.5 228.38 C-42.07 224.75 -29.7 219.38 -18.12 211.62 C-4.92 201.96 6.92 191.42 16.12 177.75 C17.79 175.19 19.4 172.6 21 170 C21.36 169.42 21.72 168.85 22.09 168.25 C27.01 160.18 30.35 151.76 33.38 142.81 C33.71 141.83 34.04 140.84 34.39 139.83 C38.12 128.28 39.34 117.24 39.26 105.14 C39.25 103.07 39.26 101 39.27 98.93 C39.29 83.52 36.65 68.88 31.44 54.38 C26.43 41.08 19.24 28.86 10.4 17.77 C7.62 14.56 4.68 11.6 1.5 8.78 C0.76 7.9 0.76 7.9 0 7 C-0.71 4.28 -0.71 4.28 -1 2 C-0.67 1.34 -0.34 0.68 0 0 Z " fill="#17188C" transform="translate(381,236)"/>
<path d="M0 0 C0.99 0.33 1.98 0.66 3 1 C2.26 1.49 1.51 1.99 0.75 2.5 C-1.95 4.73 -1.95 4.73 -3.19 6.91 C-4.88 10.23 -6.2 13.35 -7 17 C-7.67 29.07 -7.67 29.07 -5.56 40.88 C-5.05 42.25 -4.53 43.63 -4 45 C-3.65 46.33 -3.31 47.66 -3 49 C-2.34 49 -1.68 49 -1 49 C-0.82 48.42 -0.64 47.84 -0.45 47.24 C1.04 42.61 2.68 38.3 5 34 C6.32 34.33 7.64 34.66 9 35 C11.49 41.09 13.62 46.92 14.03 53.53 C13.98 57.91 13.44 61.86 12 66 C9.98 70.05 7.56 73.47 4.33 76.64 C2.52 78.08 1.15 79.11 -1 80 C-3.67 80.46 -6.3 80.73 -9 81 C-10.61 77.07 -12.21 73.13 -13.81 69.19 C-14.26 68.09 -14.72 66.99 -15.18 65.85 C-18.38 57.93 -21.37 50.06 -22.43 41.54 C-22.44 34.66 -21.56 28.59 -19.32 22.07 C-17.21 17.15 -14.51 13.04 -11 9 C-7.57 5.6 -4.02 2.68 0 0 Z " fill="#FEE341" transform="translate(367,38)"/>
<path d="M0 0 C1.43 1.3 1.43 1.3 3 3 C5.26 9.15 5.53 14.99 5.59 21.46 C5.38 31.1 2.6 39.92 -0.27 49.06 C-2.88 57.53 -4.55 66.41 -4.3 75.29 C-3.87 79.15 -2.98 82.5 -1.53 86.1 C2.65 94.03 8.74 101.27 15.2 107.43 C18.67 110.45 22.31 113.25 26 116 C26 116.33 26 116.66 26 117 C22.72 117 20.18 116.76 17 116 C8.38 112.7 0.15 108.1 -6.82 102.05 C-7.54 101.37 -8.26 100.7 -9 100 C-9.74 99.31 -10.48 98.63 -11.24 97.92 C-14.21 94.9 -16.5 92.02 -18.38 88.22 C-20.34 83.01 -21.29 78.05 -21.5 72.5 C-21.56 67.05 -20.05 62.3 -18.28 57.2 C-16.14 51.86 -13.35 46.93 -10.5 41.94 C-4.2 30.92 -4.2 30.92 0 19 C0.4 15.57 0.39 12.25 0.25 8.81 C0.23 7.96 0.21 7.1 0.2 6.22 C0.15 4.14 0.08 2.07 0 0 Z " fill="#FBA83D" transform="translate(223,348)"/>
<path d="M0 0 C1.65 0 3.3 0 5 0 C8.96 5.01 12.38 9.97 15.12 15.75 C15.49 16.52 15.86 17.29 16.24 18.09 C20.97 28.46 24.27 39.42 27.66 50.28 C29.98 57.64 32.38 64.49 36.4 71.13 C37.99 73.15 37.99 73.15 40.48 74.74 C41.31 75.16 42.14 75.57 43 76 C46.21 76.25 46.21 76.25 49 76 C50.71 74.38 52.37 72.71 54 71 C54.98 68.05 55.32 65.55 55.3 62.45 C54.8 58.37 53.26 54.65 51.78 50.83 C51.52 49.9 51.26 48.96 51 48 C51.38 45.14 51.38 45.14 52 43 C54.48 42.5 54.48 42.5 57 42 C64.41 47.6 69.83 55.01 74.88 62.75 C77.33 66.75 79.49 70.55 81 75 C81.19 77.94 81.19 77.94 81 80 C80.67 80.33 80.34 80.66 80 81 C78.35 81 76.7 81 75 81 C74.74 80.5 74.48 80 74.21 79.49 C73.01 77.22 71.82 74.95 70.62 72.69 C70.21 71.9 69.8 71.12 69.38 70.31 C68.78 69.17 68.78 69.17 68.16 68.01 C67.8 67.32 67.43 66.62 67.05 65.9 C66.12 64.22 65.07 62.6 64 61 C63.91 61.86 63.83 62.71 63.74 63.6 C62.63 72.58 62.63 72.58 60.96 76.32 C59.13 79.05 57.01 80.99 54.38 82.94 C50.33 84.21 46.84 84.48 42.61 84.34 C40 84 40 84 36.75 82.5 C35.39 81.26 35.39 81.26 34 80 C33.44 79.5 32.88 79 32.3 78.48 C29.46 75.65 27.39 72.77 25.57 69.2 C22.68 62.26 20.38 55.14 18.06 47.99 C17.41 46.02 16.77 44.04 16.12 42.06 C15.8 41.08 15.8 41.08 15.48 40.07 C11.81 28.85 7.64 18.31 1.29 8.3 C0.86 7.54 0.44 6.78 0 6 C-0.19 2.69 -0.19 2.69 0 0 Z " fill="#191A89" transform="translate(253,89)"/>
<path d="M0 0 C5.01 1.41 9.57 3 13.86 6 C15.11 7.07 16.34 8.18 17.54 9.32 C18.2 9.91 18.85 10.5 19.52 11.11 C24.17 15.77 27.04 20.85 29.79 26.75 C31.08 29.59 32.32 32.45 33.54 35.32 C34 36.37 34.46 37.42 34.93 38.5 C36.89 43.14 36.89 43.14 37.54 45.32 C37.54 46.64 37.54 47.96 37.54 49.32 C35.14 50.66 33.17 51.56 30.54 52.32 C26.12 52.87 21.96 52.86 17.54 52.32 C13.77 51.18 10.73 49.63 7.54 47.32 C3.6 43.76 0.63 39.79 -1.89 35.13 C-2.81 33.15 -2.81 33.15 -3.46 31.32 C-3.71 28.32 -3.71 28.32 -3.46 26.32 C2.3 26.92 7.26 29.07 12.54 31.32 C10.29 25.93 7.89 21.12 4.54 16.32 C3.85 15 3.17 13.67 2.54 12.32 C1.97 12.05 1.4 11.78 0.81 11.5 C-1.53 10.28 -3.56 8.86 -5.71 7.32 C-8.66 5.32 -11.25 3.84 -14.71 2.94 C-17.74 2.44 -20.4 2.13 -23.46 2.32 C-22.8 1.66 -22.14 1 -21.46 0.32 C-14.51 -1.55 -7.02 -1.39 0 0 Z " fill="#FEE342" transform="translate(107.45703125,321.68359375)"/>
<path d="M0 0 C2.21 0.23 3.95 0.71 6.01 1.54 C7.55 2.37 7.55 2.37 9.13 3.22 C10.12 4.71 10.12 4.71 11.13 6.22 C11.21 8.55 11.22 10.89 11.13 13.22 C8.5 16.63 5.95 19.63 2.45 22.16 C-1.69 23.49 -5.35 23.45 -9.67 23.33 C-10.4 23.29 -11.12 23.26 -11.87 23.22 C-13.56 21.92 -15.22 20.59 -16.87 19.22 C-17.2 18.56 -17.53 17.9 -17.87 17.22 C-18.12 13.91 -18.12 13.91 -17.87 10.22 C-16.74 7.54 -16.74 7.54 -14.87 5.22 C-9.9 1.5 -6.26 -0.08 0 0 Z " fill="#FAFAFC" transform="translate(304.8671875,327.77734375)"/>
<path d="M0 0 C0.99 0 1.98 0 3 0 C3.49 15.32 3.61 30.24 -1 45 C-5.81 58.62 -12.9 71.11 -22 82.31 C-23.33 83.88 -24.66 85.45 -26 87 C-27.98 87.5 -27.98 87.5 -30 88 C-29.75 86.3 -29.75 86.3 -29 84 C-27.73 82.35 -26.38 80.75 -25 79.19 C-17.1 69.72 -11.09 59.47 -6.9 47.86 C-2.64 35.43 -0.99 23.06 -0.44 10 C-0.39 9.03 -0.35 8.07 -0.31 7.07 C-0.2 4.72 -0.1 2.36 0 0 Z " fill="#F1F1FD" transform="translate(410,334)"/>
<path d="M0 0 C2.67 -0.13 5.32 -0.04 8 0 C8.66 0.66 9.32 1.32 10 2 C9.89 4.57 9.72 6.55 9 9 C6.74 12.69 4.06 15.94 1 19 C-0.32 18.67 -1.64 18.34 -3 18 C-4.65 16.02 -6.3 14.04 -8 12 C-7.67 9.69 -7.34 7.38 -7 5 C-2.25 1.12 -2.25 1.12 0 0 Z " fill="#F6F6FA" transform="translate(292,290)"/>
<path d="M0 0 C0.99 0 1.98 0 3 0 C4.17 2.07 4.97 3.8 5.37 6.16 C5.48 9.99 5.23 13.25 4.09 16.93 C1.6 23.09 -1.45 28.88 -4.77 34.62 C-5.93 36.86 -6.6 38.52 -7 41 C-7.07 43.08 -7.09 45.17 -7.06 47.25 C-7.05 48.33 -7.04 49.41 -7.04 50.52 C-7.02 51.34 -7.01 52.16 -7 53 C-7.99 53 -8.98 53 -10 53 C-11.08 50.58 -11.94 48.4 -12.33 45.77 C-12.23 42.63 -11.83 40.05 -11 37 C-8.4 31.11 -5.22 25.49 -2.02 19.91 C-0.87 17.88 -0.87 17.88 0 15 C0.07 12.43 0.09 9.88 0.06 7.31 C0.06 6.61 0.05 5.91 0.05 5.19 C0.04 3.46 0.02 1.73 0 0 Z " fill="#FEFCEC" transform="translate(170,361)"/>
<path d="M0 0 C5.78 1.19 10.91 4.11 16 7 C23.32 11.96 29.49 18.09 35 25 C36.75 27.68 36.75 27.68 38 30 C38 30.66 38 31.32 38 32 C36.68 32 35.36 32 34 32 C33.54 31.31 33.08 30.62 32.6 29.91 C27.79 22.98 22.82 17.02 16 12 C10.81 8.74 5.42 5.85 0 3 C0 2.01 0 1.02 0 0 Z " fill="#FEFCEF" transform="translate(203,67)"/>
<path d="M0 0 C1.78 0.74 1.78 0.74 4 2 C7.54 5.74 10.72 9.97 12.94 14.62 C14 18 14 18 14.19 21.94 C14.13 22.95 14.06 23.96 14 25 C13.01 25 12.02 25 11 25 C10.85 24.38 10.71 23.77 10.55 23.13 C9.28 18.3 7.77 14.25 5 10.06 C3.18 7.46 1.3 5.19 -1 3 C-0.67 2.01 -0.34 1.02 0 0 Z " fill="#FEF6EC" transform="translate(213,139)"/>
<path d="M0 0 C0.99 0 1.98 0 3 0 C3.33 3.6 3.15 6.41 2.25 9.93 C0.81 14.45 -0.61 18.78 -3.25 22.75 C-3.83 23.49 -4.4 24.24 -5 25 C-5.99 25 -6.98 25 -8 25 C-7.31 21.68 -6.06 18.92 -4.56 15.88 C-2.13 10.66 -0.82 5.67 0 0 Z " fill="#F2F2FD" transform="translate(397,364)"/>
</svg>
