<?xml version="1.0" encoding="UTF-8"?>
<!-- Generator: visioncortex VTracer 0.6.4 -->
<svg version="1.1" xmlns="http://www.w3.org/2000/svg" width="512" height="512">
<path d="M0 0 C3.75 0.38 3.75 0.38 7 1 C8.85 3.05 8.85 3.05 11 6 C11.92 8.45 12.68 10.76 13.36 13.27 C13.65 14.29 13.65 14.29 13.95 15.33 C14.56 17.49 15.15 19.65 15.75 21.81 C16.16 23.28 16.58 24.75 17 26.22 C18.01 29.81 19.01 33.41 20 37 C20.66 37 21.32 37 22 37 C23.11 36.29 23.11 36.29 24.25 35.56 C27 34 27 34 29.88 33.19 C33 33 33 33 36.44 33.44 C40 35 40 35 41.96 36.67 C43.88 38.69 45.49 40.67 47 43 C48.12 46.5 48.12 46.5 48 50 C46.91 54.12 45.36 57.46 43 61 C43.92 61.26 44.84 61.52 45.78 61.79 C49.2 62.77 52.61 63.75 56.02 64.74 C57.5 65.16 58.98 65.58 60.45 66 C62.58 66.61 64.7 67.22 66.83 67.84 C67.49 68.02 68.14 68.21 68.82 68.4 C72.06 69.34 75.05 70.36 78 72 C79 73.62 79 73.62 80 76 C80.12 79.25 80.12 79.25 80 82 C75.45 87.48 70.72 92.71 65 97 C61.37 98.21 58.31 98.13 54.52 98.1 C51.62 97.98 48.84 97.6 46 97 C46.5 97.8 46.99 98.61 47.5 99.44 C48.78 102.48 49.32 104.19 49.5 107.38 C49.38 109.6 49.38 109.6 49 112 C46.83 116.95 43.28 120.94 39.6 124.83 C37.95 126.5 36.29 128.16 34.62 129.81 C33.8 130.66 32.98 131.5 32.12 132.37 C25.32 139.17 25.32 139.17 21.4 141.07 C17.5 142.14 13.99 142.32 10 142 C6.91 141.39 3.92 140.51 0.91 139.59 C0.07 139.35 -0.76 139.11 -1.62 138.85 C-4.25 138.08 -6.87 137.29 -9.5 136.5 C-11.29 135.97 -13.09 135.44 -14.88 134.91 C-19.26 133.62 -23.63 132.31 -28 131 C-31.85 134.25 -35.63 137.51 -39.18 141.09 C-39.88 141.79 -40.58 142.49 -41.3 143.21 C-42.01 143.93 -42.71 144.64 -43.44 145.38 C-44.17 146.11 -44.9 146.85 -45.65 147.61 C-47.44 149.4 -49.22 151.2 -51 153 C-48.4 157.03 -45.67 160.63 -42.5 164.25 C-35.91 171.98 -30.44 180.44 -25 189 C-24.57 189.68 -24.13 190.35 -23.69 191.05 C-10.48 211.86 -0.1 235.09 5.46 259.12 C10.49 282.19 12.67 305.49 9.75 329 C7.24 346.85 1.94 363.84 -6.38 379.81 C-15.06 395.96 -27.48 408.69 -40.3 421.6 C-41.55 422.86 -42.8 424.13 -44.05 425.4 C-55.62 437.25 -68.08 447.45 -82.93 455.01 C-95.69 461.09 -109.11 465.47 -123 468 C-124.2 468.22 -125.39 468.45 -126.62 468.68 C-148.13 472.01 -170.33 470.6 -191.61 466.5 C-218.08 461.15 -243.17 450.99 -266.36 437.18 C-276.76 430.8 -286.53 423.7 -296 416 C-296.6 415.51 -297.21 415.02 -297.83 414.52 C-311.5 403.39 -324.25 390.99 -335 377 C-335.78 376.02 -336.57 375.04 -337.38 374.04 C-355.22 351.62 -368.88 326.25 -378.19 299.19 C-385.66 276.58 -389.45 252.8 -389 229 C-388.21 209.97 -384.78 191.39 -377.59 173.7 C-371.95 160.37 -365.07 148.48 -355.38 137.69 C-354.7 136.97 -354.03 136.25 -353.34 135.51 C-351.48 133.51 -349.69 131.49 -347.92 129.42 C-335.92 115.66 -322.67 101.52 -307 92 C-305.94 91.32 -304.88 90.63 -303.78 89.93 C-290.76 81.94 -275.98 76.42 -261.08 73.16 C-259.06 72.75 -257.03 72.37 -255 72 C-253.8 71.78 -252.61 71.55 -251.38 71.32 C-229.87 67.99 -207.61 69.36 -186.34 73.52 C-159.81 78.96 -134.36 89.21 -111.25 103.3 C-98.15 111.53 -85.79 120.99 -74 131 C-71.47 129.94 -69.77 128.79 -67.71 126.94 C-66.48 125.7 -66.48 125.7 -65.23 124.43 C-63.9 123.09 -63.9 123.09 -62.54 121.71 C-61.62 120.78 -60.7 119.84 -59.75 118.88 C-58.81 117.92 -57.86 116.97 -56.91 116.01 C-54.6 113.68 -52.3 111.34 -50 109 C-50.33 107.89 -50.67 106.78 -51.01 105.64 C-52.25 101.5 -53.48 97.35 -54.7 93.2 C-55.23 91.41 -55.76 89.63 -56.3 87.84 C-57.08 85.26 -57.84 82.68 -58.59 80.09 C-58.83 79.3 -59.07 78.51 -59.32 77.7 C-60.79 72.62 -61.28 68.29 -61 63 C-60.4 60.73 -59.55 59.08 -58.42 57.03 C-55.76 53.23 -52.41 50.12 -49 47 C-45.53 46.5 -45.53 46.5 -42 46 C-36.25 49.75 -36.25 49.75 -34 52 C-34.24 50.93 -34.24 50.93 -34.48 49.84 C-34.99 47.06 -35.24 44.45 -35.31 41.62 C-35.35 40.73 -35.39 39.84 -35.43 38.91 C-35 36 -35 36 -33.36 32.73 C-31.02 28.77 -28.1 25.69 -24.84 22.48 C-23.97 21.6 -23.97 21.6 -23.07 20.71 C-21.85 19.48 -20.62 18.26 -19.38 17.05 C-17.5 15.18 -15.62 13.31 -13.75 11.43 C-12.56 10.24 -11.36 9.05 -10.16 7.86 C-9.6 7.3 -9.04 6.74 -8.47 6.16 C-6.37 4.1 -4.32 2.21 -1.85 0.61 C-1.24 0.41 -0.63 0.21 0 0 Z " fill="#F24B58" transform="translate(410,21)"/>
<path d="M0 0 C1.14 0 1.14 0 2.3 0.01 C20.5 0.12 36.94 3.34 54.06 9.56 C72.82 16.78 90.03 26.31 106 38.5 C107 39.26 108.01 40.02 109.04 40.81 C111.05 42.35 113.03 43.91 115 45.5 C114.74 47.24 114.74 47.24 114 49.5 C112.33 51.51 112.33 51.51 110.18 53.61 C109.42 54.36 108.66 55.12 107.87 55.89 C107.07 56.67 106.26 57.45 105.44 58.25 C104.23 59.44 104.23 59.44 102.99 60.65 C101 62.61 99 64.56 97 66.5 C93.83 64.97 90.98 63.17 88.08 61.18 C72.63 50.56 57.09 43.56 39 38.5 C26.59 35.32 13.03 35.9 0.33 36.74 C-8.54 37.82 -16.91 40.78 -25 44.5 C-33.32 48.83 -40.64 54.62 -47 61.5 C-52.33 68.12 -56.74 75.24 -59.94 83.12 C-60.66 85.24 -61.34 87.36 -62 89.5 C-62.32 90.42 -62.63 91.34 -62.96 92.29 C-66.37 103.9 -65.63 116.53 -65 128.5 C-63.9 142.25 -58.74 155.34 -53.08 167.8 C-45.4 184.09 -34.48 198.41 -21.72 211.08 C-8.62 223.74 6.83 233.02 23.35 240.52 C33.71 245.05 44.71 247.76 56 248.5 C68.84 249.05 81.92 249.36 94.29 245.46 C103.67 242.05 112.33 237.73 120.25 231.62 C126.87 226.07 131.77 220.28 136.12 212.81 C141.03 204.09 144.74 195.08 146.61 185.23 C147.29 180.47 147.34 175.74 147.31 170.94 C147.31 169.89 147.3 168.84 147.3 167.76 C147.17 158.73 146.08 150.28 144 141.5 C143.74 140.35 143.49 139.2 143.23 138.02 C139.82 124.47 133.45 111.69 125.69 100.12 C122.96 96.11 120.07 92.26 117 88.5 C117.26 86.76 117.26 86.76 118 84.5 C119.67 82.49 119.67 82.49 121.82 80.39 C122.96 79.26 122.96 79.26 124.13 78.11 C124.93 77.33 125.74 76.55 126.56 75.75 C127.37 74.96 128.18 74.16 129.01 73.35 C131 71.39 133 69.44 135 67.5 C136.84 68.31 136.84 68.31 139 69.5 C140.38 70.91 140.38 70.91 141.63 72.56 C142.1 73.18 142.57 73.81 143.06 74.45 C143.56 75.13 144.05 75.8 144.56 76.5 C145.09 77.21 145.61 77.92 146.15 78.66 C158.72 95.97 169.42 115.07 176 135.5 C177.17 139.71 178.2 143.94 179.19 148.19 C179.45 149.26 179.71 150.34 179.97 151.45 C182.41 161.72 183.18 171.12 183.19 181.69 C183.2 182.83 183.21 183.97 183.22 185.15 C183.25 199.32 180.7 212.96 176.05 226.33 C172.08 237.3 166.86 247.16 159.56 256.31 C158.06 258.06 156.54 259.79 155 261.5 C154.31 262.27 153.63 263.04 152.92 263.83 C145.82 271.35 137.46 277.71 128.29 282.51 C115.59 288.81 102.29 293.16 88.22 295 C71.12 296.86 54.11 295.86 37.4 291.88 C26.13 289.06 15.39 285.45 4.91 280.42 C2.98 279.49 1.04 278.59 -0.91 277.7 C-15.37 270.9 -28.91 261.94 -41 251.5 C-41.76 250.85 -42.51 250.21 -43.29 249.54 C-45.91 247.24 -48.46 244.89 -51 242.5 C-51.56 241.98 -52.12 241.45 -52.69 240.91 C-69.85 224.66 -83.23 206.09 -93.92 185.03 C-101.51 169.54 -108.03 152.19 -110.34 135 C-112.09 118.16 -112.91 99.07 -109 82.5 C-105.22 68.45 -99.66 55.34 -91.31 43.38 C-84.66 34.22 -76.93 26.39 -67.75 19.75 C-57.03 12.67 -45.44 6.83 -33 3.5 C-21.93 0.95 -11.34 -0.07 0 0 Z " fill="#FEFDFD" transform="translate(201,127.5)"/>
<path d="M0 0 C17.67 5.18 33.08 12.25 48.06 22.9 C50.74 24.88 52.48 26.46 54.35 29.27 C40.68 42.93 27.01 56.6 13.35 70.27 C11.93 69.95 10.51 69.64 9.1 69.33 C8.31 69.15 7.52 68.98 6.71 68.8 C5.25 68.47 3.79 68.11 2.35 67.71 C-1.63 66.82 -5.61 66.94 -9.65 67.27 C-12.57 67.88 -15.04 68.83 -17.65 70.27 C-20.36 71.99 -22.55 73.83 -24.65 76.27 C-26.56 79.15 -27.78 81.92 -28.65 85.27 C-29.22 90.35 -29 95.32 -27.96 100.33 C-26.25 106.14 -23.59 111.53 -20.09 116.47 C-16.55 120.76 -12.69 124.03 -7.95 126.94 C-7.19 127.38 -6.43 127.82 -5.65 128.27 C-4.97 128.68 -4.28 129.1 -3.57 129.52 C-1.26 130.75 0.82 131.59 3.35 132.27 C9 132.85 14.49 132.84 20.07 131.72 C23.35 130.73 26.12 129.39 29.1 127.7 C31.82 124.76 33.69 121.95 35.4 118.32 C36.91 113.45 36.88 108.83 36.73 103.77 C36.26 99.44 35.07 96.23 33.35 92.27 C33.52 90.32 33.52 90.32 34.35 88.27 C35.99 86.27 35.99 86.27 38.13 84.14 C38.93 83.34 39.73 82.54 40.56 81.71 C41.43 80.86 42.3 80 43.2 79.12 C44.08 78.24 44.97 77.36 45.88 76.45 C48.24 74.11 50.6 71.78 52.96 69.45 C55.37 67.07 57.77 64.68 60.18 62.29 C64.89 57.61 69.62 52.93 74.35 48.27 C83.9 57.56 90.6 70.34 96.4 82.24 C101.66 93.52 104.69 105.64 106.15 117.98 C107.07 128.63 107.64 140.52 105.16 150.95 C104.6 152.74 103.99 154.51 103.35 156.27 C103 157.31 102.64 158.36 102.28 159.44 C99.04 168.55 94.87 176.71 88.95 184.37 C83.32 191.06 77.06 195.99 69.55 200.43 C68.5 201.04 67.44 201.64 66.35 202.27 C65.63 202.69 64.91 203.12 64.17 203.57 C58.06 206.96 51.12 208.68 44.35 210.27 C30.7 212.42 16.26 212.17 2.68 209.67 C-12.72 206.53 -26.16 200.17 -39.65 192.27 C-49.12 186.45 -57.32 179.31 -65.28 171.59 C-66.44 170.47 -67.63 169.38 -68.82 168.29 C-78.96 158.8 -87.14 146.65 -93.62 134.42 C-100.61 120.56 -105.46 105.63 -107.65 90.27 C-108.62 78.15 -108.69 65.69 -105.53 53.89 C-102.63 44.02 -98.38 35.46 -92.4 27.08 C-86.68 19.75 -80.18 13.83 -72.53 8.58 C-64.74 3.85 -56.27 0.71 -47.48 -1.55 C-32.38 -4.35 -14.79 -4.1 0 0 Z " fill="#F24C59" transform="translate(242.65234375,165.73486328125)"/>
<path d="M0 0 C3.75 0.38 3.75 0.38 7 1 C8.85 3.05 8.85 3.05 11 6 C11.92 8.45 12.68 10.76 13.36 13.27 C13.65 14.29 13.65 14.29 13.95 15.33 C14.56 17.49 15.15 19.65 15.75 21.81 C16.16 23.28 16.58 24.75 17 26.22 C18.01 29.81 19.01 33.41 20 37 C20.66 37 21.32 37 22 37 C23.11 36.29 23.11 36.29 24.25 35.56 C27 34 27 34 29.88 33.19 C33 33 33 33 36.44 33.44 C40 35 40 35 41.96 36.67 C43.88 38.69 45.49 40.67 47 43 C48.12 46.5 48.12 46.5 48 50 C46.91 54.12 45.36 57.46 43 61 C43.92 61.26 44.84 61.52 45.78 61.79 C49.2 62.77 52.61 63.75 56.02 64.74 C57.5 65.16 58.98 65.58 60.45 66 C62.58 66.61 64.7 67.22 66.83 67.84 C67.49 68.02 68.14 68.21 68.82 68.4 C72.06 69.34 75.05 70.36 78 72 C79 73.62 79 73.62 80 76 C80.12 79.25 80.12 79.25 80 82 C75.45 87.48 70.72 92.71 65 97 C61.37 98.21 58.31 98.13 54.52 98.1 C51.62 97.98 48.84 97.6 46 97 C46.5 97.8 46.99 98.61 47.5 99.44 C48.78 102.48 49.32 104.19 49.5 107.38 C49.38 109.6 49.38 109.6 49 112 C46.83 116.95 43.28 120.94 39.6 124.83 C37.95 126.5 36.29 128.16 34.62 129.81 C33.8 130.66 32.98 131.5 32.12 132.37 C25.32 139.17 25.32 139.17 21.4 141.07 C17.5 142.14 13.99 142.32 10 142 C6.91 141.39 3.92 140.51 0.91 139.59 C0.07 139.35 -0.76 139.11 -1.62 138.85 C-4.25 138.08 -6.87 137.29 -9.5 136.5 C-11.29 135.97 -13.09 135.44 -14.88 134.91 C-19.26 133.62 -23.63 132.31 -28 131 C-31.84 134.24 -35.6 137.47 -39.12 141.06 C-39.83 141.77 -40.54 142.49 -41.27 143.23 C-42.71 144.7 -44.15 146.17 -45.6 147.63 C-46.31 148.35 -47.01 149.07 -47.75 149.81 C-48.37 150.45 -49 151.08 -49.64 151.74 C-51.61 153.62 -53.61 155.4 -55.67 157.17 C-59.82 160.79 -63.73 164.6 -67.61 168.5 C-68.32 169.21 -69.04 169.92 -69.77 170.66 C-72.1 172.99 -74.42 175.32 -76.75 177.65 C-78.38 179.28 -80 180.91 -81.63 182.53 C-85.88 186.79 -90.14 191.06 -94.39 195.32 C-98.74 199.68 -103.09 204.04 -107.44 208.39 C-115.96 216.93 -124.48 225.46 -133 234 C-132.69 235.46 -132.38 236.92 -132.06 238.38 C-131.8 239.59 -131.8 239.59 -131.54 240.84 C-131.08 243.03 -131.08 243.03 -130 245 C-129.56 250.06 -129.57 254.95 -130 260 C-130.82 262.96 -131.83 265.27 -133.38 267.91 C-135.61 270.78 -137.95 272.89 -140.98 274.88 C-144.08 276.6 -146.48 277.43 -150 278 C-154.78 278.56 -159.22 278.64 -164 278 C-170.12 275.88 -175.43 272.86 -180.67 269.07 C-185.19 265.3 -188.69 261.16 -191.79 256.16 C-193.96 252.29 -195.6 248.58 -196.69 244.25 C-197.15 239.43 -197.57 234.83 -197 230 C-195.82 226.3 -194.22 223.19 -192 220 C-189.89 217.57 -187.72 215.72 -185 214 C-182.38 212.57 -179.91 211.64 -177 211 C-173.57 210.52 -170.44 210.55 -167 211 C-162.59 212.13 -158.29 213.49 -154 215 C-153.75 214.41 -153.49 213.82 -153.23 213.21 C-152 211 -152 211 -150.31 209.33 C-149.65 208.79 -149 208.25 -148.33 207.69 C-144.28 204.27 -140.52 200.66 -136.78 196.91 C-136.1 196.24 -135.43 195.56 -134.74 194.87 C-132.54 192.68 -130.35 190.48 -128.15 188.29 C-126.61 186.74 -125.07 185.2 -123.53 183.66 C-120.31 180.45 -117.09 177.23 -113.87 174 C-109.77 169.89 -105.65 165.78 -101.54 161.67 C-98.36 158.5 -95.18 155.32 -92.01 152.14 C-90.49 150.62 -88.98 149.11 -87.46 147.6 C-85.33 145.47 -83.21 143.35 -81.09 141.22 C-80.17 140.3 -80.17 140.3 -79.22 139.36 C-75.5 135.61 -71.96 131.74 -68.51 127.74 C-66.62 125.57 -64.64 123.52 -62.6 121.5 C-61.85 120.76 -61.11 120.02 -60.34 119.25 C-59.21 118.14 -59.21 118.14 -58.06 117 C-57.28 116.23 -56.5 115.45 -55.7 114.65 C-53.8 112.77 -51.9 110.88 -50 109 C-50.33 107.89 -50.67 106.78 -51.01 105.64 C-52.25 101.5 -53.48 97.35 -54.7 93.2 C-55.23 91.41 -55.76 89.63 -56.3 87.84 C-57.08 85.26 -57.84 82.68 -58.59 80.09 C-58.83 79.3 -59.07 78.51 -59.32 77.7 C-60.79 72.62 -61.28 68.29 -61 63 C-60.4 60.73 -59.55 59.08 -58.42 57.03 C-55.76 53.23 -52.41 50.12 -49 47 C-45.53 46.5 -45.53 46.5 -42 46 C-36.25 49.75 -36.25 49.75 -34 52 C-34.16 51.29 -34.32 50.57 -34.48 49.84 C-34.99 47.06 -35.24 44.45 -35.31 41.62 C-35.37 40.28 -35.37 40.28 -35.43 38.91 C-35 36 -35 36 -33.36 32.73 C-31.02 28.77 -28.1 25.69 -24.84 22.48 C-24.26 21.9 -23.68 21.31 -23.07 20.71 C-21.85 19.48 -20.62 18.26 -19.38 17.05 C-17.5 15.18 -15.62 13.31 -13.75 11.43 C-12.56 10.24 -11.36 9.05 -10.16 7.86 C-9.6 7.3 -9.04 6.74 -8.47 6.16 C-6.37 4.1 -4.32 2.21 -1.85 0.61 C-1.24 0.41 -0.63 0.21 0 0 Z " fill="#1E2943" transform="translate(410,21)"/>
<path d="M0 0 C0 0.99 0 1.98 0 3 C-0.47 3.61 -0.95 4.22 -1.43 4.84 C-11.33 17.96 -19.13 32.27 -24 48 C-29.87 69.16 -30.97 90.13 -30 112 C-28.03 136.09 -20.9 160.02 -11 182 C-8.5 187.42 -5.82 192.74 -3 198 C-2.53 198.88 -2.53 198.88 -2.05 199.79 C9.35 220.98 24.38 239.68 41 257 C41.85 257.89 42.71 258.79 43.59 259.71 C49.36 265.63 55.5 270.89 62 276 C62.99 276.79 63.97 277.58 64.99 278.4 C88.7 297.12 115.44 311.24 144 321 C150.25 323.03 156.57 324.63 163 326 C163.92 326.2 164.83 326.39 165.78 326.59 C186.57 330.85 207.6 331.63 228.65 328.76 C238.62 327.24 248.47 325.39 258 322 C258.95 321.67 259.89 321.33 260.87 320.99 C273.57 316.08 286.06 309.24 296.45 300.4 C296.96 299.94 297.47 299.48 298 299 C298.66 299.33 299.32 299.66 300 300 C289.69 310.74 279.67 321.09 267 329 C265.93 329.69 264.87 330.38 263.77 331.09 C250.14 339.42 234.64 345.08 219 348.26 C217.67 348.51 216.33 348.76 215 349 C213.8 349.22 212.61 349.45 211.38 349.68 C189.87 353.01 167.67 351.6 146.39 347.5 C119.92 342.15 94.83 331.99 71.64 318.18 C61.24 311.8 51.47 304.7 42 297 C41.4 296.51 40.79 296.02 40.17 295.52 C26.5 284.39 13.75 271.99 3 258 C2.22 257.02 1.43 256.04 0.62 255.04 C-17.22 232.62 -30.88 207.25 -40.19 180.19 C-47.66 157.58 -51.45 133.8 -51 110 C-50.21 90.97 -46.78 72.39 -39.59 54.7 C-33.95 41.37 -27.07 29.48 -17.38 18.69 C-15.92 17.12 -14.46 15.56 -13 14 C-11.77 12.59 -10.54 11.17 -9.31 9.75 C-6.35 6.34 -3.23 3.15 0 0 Z " fill="#CC104A" transform="translate(72,140)"/>
<path d="M0 0 C1.54 0.01 1.54 0.01 3.11 0.01 C10.39 0.13 16.95 0.76 23.81 3.31 C24.79 3.66 25.76 4.02 26.77 4.38 C34.23 7.28 41.01 11.13 47.81 15.31 C47.5 17.11 47.5 17.11 46.81 19.31 C45.48 20.99 45.48 20.99 43.79 22.62 C43.18 23.23 42.57 23.83 41.94 24.45 C41.3 25.06 40.66 25.68 40 26.31 C39.37 26.93 38.74 27.54 38.09 28.18 C36.88 29.37 35.66 30.55 34.44 31.73 C32.54 33.57 30.67 35.44 28.81 37.31 C27.4 37 25.98 36.69 24.56 36.38 C23.77 36.2 22.98 36.03 22.17 35.85 C20.71 35.52 19.26 35.16 17.81 34.76 C13.84 33.87 9.86 33.98 5.81 34.31 C2.89 34.93 0.43 35.88 -2.19 37.31 C-4.9 39.04 -7.09 40.88 -9.19 43.31 C-11.1 46.2 -12.31 48.96 -13.19 52.31 C-13.76 57.39 -13.54 62.37 -12.5 67.38 C-10.79 73.19 -8.13 78.58 -4.62 83.52 C-1.09 87.81 2.78 91.08 7.51 93.99 C8.65 94.65 8.65 94.65 9.81 95.31 C10.5 95.73 11.19 96.14 11.89 96.57 C14.2 97.8 16.28 98.63 18.81 99.31 C24.46 99.9 29.95 99.88 35.54 98.77 C38.81 97.78 41.59 96.44 44.56 94.75 C47.28 91.8 49.16 88.99 50.86 85.36 C52.38 80.5 52.35 75.87 52.19 70.82 C51.72 66.49 50.53 63.28 48.81 59.31 C48.97 57.38 48.97 57.38 49.81 55.31 C51.58 53.21 51.58 53.21 53.85 50.98 C55.06 49.79 55.06 49.79 56.3 48.56 C57.15 47.74 58 46.91 58.88 46.06 C60.16 44.8 60.16 44.8 61.46 43.52 C63.57 41.44 65.69 39.37 67.81 37.31 C68.47 37.31 69.13 37.31 69.81 37.31 C80.06 53.73 80.06 53.73 82.81 62.31 C83.26 63.55 83.26 63.55 83.71 64.82 C86.35 73.31 86.47 82.06 86.22 90.88 C85.88 97.02 84.68 102.29 82.43 108.04 C79.37 114.23 75.58 119.33 70.91 124.37 C67.31 127.8 63.64 130.04 59.12 132.12 C57.36 132.87 55.59 133.6 53.81 134.31 C53.04 134.67 52.27 135.02 51.48 135.39 C44.83 137.69 37.5 137.62 30.52 137.62 C22.94 137.48 15.9 136.04 8.81 133.31 C-2.95 128.47 -13.07 121.9 -22.5 113.34 C-30.18 106.14 -35.99 98.45 -41.19 89.31 C-41.69 88.44 -42.19 87.56 -42.71 86.66 C-46.73 79.14 -49.65 70.76 -50.94 62.31 C-51.75 52.9 -51.65 43.47 -49.19 34.31 C-46.93 27.74 -43.51 21.74 -39.19 16.31 C-35.58 12.39 -31.79 9.25 -27.19 6.55 C-18.02 1.82 -10.27 -0.06 0 0 Z " fill="#FEFDFD" transform="translate(227.1875,198.6875)"/>
<path d="M0 0 C3.75 0.38 3.75 0.38 7 1 C8.85 3.06 8.85 3.06 11 6 C12.3 9.33 12.3 9.33 13.39 13.09 C13.59 13.76 13.79 14.43 13.99 15.12 C14.4 16.53 14.8 17.94 15.2 19.35 C15.81 21.5 16.45 23.64 17.08 25.79 C17.48 27.16 17.88 28.53 18.27 29.91 C18.63 31.15 18.98 32.39 19.35 33.67 C20 37 20 37 19.93 39.29 C19 42 19 42 17.83 43.52 C16.19 45.31 14.48 47.02 12.74 48.72 C12.08 49.37 11.43 50.03 10.76 50.7 C8.59 52.86 6.42 55 4.25 57.14 C2.74 58.64 1.24 60.13 -0.26 61.63 C-4.2 65.56 -8.16 69.48 -12.13 73.4 C-16.17 77.4 -20.2 81.42 -24.23 85.43 C-32.14 93.3 -40.07 101.15 -48 109 C-48.66 108.67 -49.32 108.34 -50 108 C-51.58 102.88 -53.15 97.76 -54.7 92.63 C-55.23 90.89 -55.76 89.15 -56.3 87.41 C-57.08 84.9 -57.84 82.39 -58.59 79.88 C-58.95 78.72 -58.95 78.72 -59.32 77.55 C-60.82 72.52 -61.27 68.25 -61 63 C-60.4 60.73 -59.55 59.08 -58.42 57.03 C-55.76 53.23 -52.41 50.12 -49 47 C-45.54 46.5 -45.54 46.5 -42 46 C-36.25 49.75 -36.25 49.75 -34 52 C-34.16 51.29 -34.32 50.57 -34.48 49.84 C-34.99 47.06 -35.24 44.45 -35.31 41.62 C-35.35 40.73 -35.39 39.84 -35.43 38.91 C-35 36 -35 36 -33.36 32.73 C-31.02 28.77 -28.1 25.69 -24.84 22.48 C-24.26 21.9 -23.68 21.31 -23.07 20.71 C-21.85 19.48 -20.62 18.26 -19.38 17.05 C-17.5 15.18 -15.62 13.31 -13.75 11.43 C-12.56 10.24 -11.36 9.05 -10.16 7.86 C-9.6 7.3 -9.04 6.74 -8.47 6.16 C-6.37 4.1 -4.32 2.21 -1.85 0.61 C-1.24 0.41 -0.63 0.21 0 0 Z " fill="#FED06C" transform="translate(410,21)"/>
<path d="M0 0 C5.33 0.67 9.54 1.28 14.55 2.78 C15.72 3.13 16.9 3.47 18.11 3.83 C19.91 4.38 19.91 4.38 21.75 4.94 C22.97 5.3 24.19 5.66 25.44 6.03 C35.25 8.96 35.25 8.96 39 11 C40 12.63 40 12.63 41 15 C41.12 18.25 41.12 18.25 41 21 C36.45 26.48 31.72 31.71 26 36 C22.37 37.21 19.31 37.13 15.52 37.1 C12.62 36.98 9.84 36.6 7 36 C7.5 36.8 7.99 37.61 8.5 38.44 C9.78 41.48 10.32 43.19 10.5 46.38 C10.38 48.6 10.38 48.6 10 51 C7.83 55.95 4.28 59.94 0.6 63.83 C-1.05 65.5 -2.71 67.16 -4.38 68.81 C-5.2 69.66 -6.02 70.5 -6.88 71.37 C-13.68 78.17 -13.68 78.17 -17.6 80.07 C-21.5 81.14 -25.01 81.32 -29 81 C-32.09 80.39 -35.08 79.51 -38.09 78.59 C-39.34 78.23 -39.34 78.23 -40.62 77.85 C-43.25 77.08 -45.87 76.29 -48.5 75.5 C-50.29 74.97 -52.09 74.44 -53.88 73.91 C-58.26 72.62 -62.63 71.31 -67 70 C-67 69.01 -67 68.02 -67 67 C-44.89 44.89 -22.78 22.78 0 0 Z " fill="#FECF6B" transform="translate(449,82)"/>
<path d="M0 0 C1.32 0.33 2.64 0.66 4 1 C15.25 15.13 26.14 29.23 35 45 C35.37 45.66 35.75 46.32 36.13 47.01 C45.37 63.52 52.6 80.86 58 99 C58 99.66 58 100.32 58 101 C46.78 101 35.56 101 24 101 C22.21 96.24 20.61 91.83 19.25 87 C13.15 67.02 2.83 48.57 -9.59 31.87 C-12.63 27.84 -15.76 23.88 -19 20 C-13.17 12.84 -6.56 6.47 0 0 Z " fill="#F24B58" transform="translate(356,175)"/>
<path d="M0 0 C3.41 0.81 6.7 1.82 10 3 C10 3.99 10 4.98 10 6 C9.1 6.88 8.19 7.76 7.26 8.67 C6.07 9.84 4.88 11.01 3.69 12.19 C2.8 13.05 2.8 13.05 1.88 13.94 C-0.59 16.38 -2.83 18.77 -4.89 21.58 C-6.13 23.98 -6.13 23.98 -6.4 26.72 C-6.37 29.51 -6.3 32.23 -6 35 C-5.63 35.99 -5.26 36.98 -4.88 38 C-3.01 40.15 -3.01 40.15 -0.25 41.81 C2.98 43.14 2.98 43.14 6.5 43.38 C9.93 43.16 9.93 43.16 12.7 41.99 C17.28 39.23 20.68 35.64 24.38 31.81 C25.11 31.06 25.85 30.31 26.61 29.54 C28.41 27.7 30.21 25.85 32 24 C33.77 26.26 35.05 28.12 36.16 30.8 C37.43 35.65 37.45 40.23 37.37 45.23 C37.02 48.77 36.45 51.34 35 54.56 C33.57 56.99 32.13 58.87 30.13 60.87 C27.21 63.25 24.32 64.86 20.88 66.38 C14.79 67.36 9.13 67.82 3 67 C-3.12 64.88 -8.43 61.86 -13.67 58.07 C-18.19 54.3 -21.69 50.16 -24.79 45.16 C-26.96 41.29 -28.6 37.58 -29.69 33.25 C-30.15 28.43 -30.57 23.83 -30 19 C-28.82 15.3 -27.22 12.19 -25 9 C-22.89 6.57 -20.72 4.72 -18 3 C-12.24 -0.16 -6.48 -0.76 0 0 Z " fill="#F24C59" transform="translate(243,232)"/>
<path d="M0 0 C4 2 4 2 5.38 3.41 C5.79 3.96 6.2 4.5 6.63 5.06 C7.1 5.68 7.57 6.31 8.06 6.95 C8.8 7.96 8.8 7.96 9.56 9 C10.09 9.71 10.61 10.42 11.15 11.16 C23.67 28.39 34.62 47.59 41 68 C41.99 72.29 42.98 76.58 44 81 C33.44 81 22.88 81 12 81 C11.67 81.66 11.34 82.32 11 83 C10.78 81.95 10.56 80.89 10.34 79.81 C6.96 64.18 1.42 49.64 -7 36 C-9.17 32.79 -11.42 29.65 -13.76 26.57 C-14.88 25.07 -15.95 23.54 -17 22 C-17.33 20.68 -17.66 19.36 -18 18 C-12.06 12.06 -6.12 6.12 0 0 Z " fill="#FDFCFC" transform="translate(336,195)"/>
<path d="M0 0 C9.95 9.95 17.08 23.3 23 36 C26.8 44.67 28.42 52.51 30 62 C18.78 62 7.56 62 -4 62 C-4.8 58.87 -5.61 55.73 -6.44 52.5 C-9.21 42.31 -13.47 33.92 -19 25 C-19.66 23.68 -20.32 22.36 -21 21 C-14.07 14.07 -7.14 7.14 0 0 Z " fill="#C84554" transform="translate(317,214)"/>
<path d="M0 0 C0.66 0 1.32 0 2 0 C9 11.22 14.31 21.49 17.48 34.43 C18 37 18 37 18 40 C7.11 40 -3.78 40 -15 40 C-15.33 36.7 -15.66 33.4 -16 30 C-16.99 27.33 -17.99 24.66 -19 22 C-18.84 20.04 -18.84 20.04 -18 18 C-16.23 15.89 -16.23 15.89 -13.96 13.67 C-12.75 12.47 -12.75 12.47 -11.51 11.25 C-10.66 10.43 -9.81 9.6 -8.94 8.75 C-8.08 7.91 -7.23 7.07 -6.35 6.2 C-4.24 4.13 -2.12 2.06 0 0 Z " fill="#D2D3D8" transform="translate(295,236)"/>
<path d="M0 0 C10.89 0 21.78 0 33 0 C38.67 13.6 38.67 13.6 40.81 20.12 C41.14 21.09 41.14 21.09 41.47 22.08 C43 26.73 43 26.73 43 29 C31.78 29 20.56 29 9 29 C7.15 24.07 5.43 19.33 3.94 14.31 C3.02 11.24 2.11 8.26 0.88 5.29 C0.59 4.54 0.3 3.78 0 3 C0 2.01 0 1.02 0 0 Z " fill="#C64453" transform="translate(371,247)"/>
<path d="M0 0 C2.06 3.09 2.95 5.63 4.07 9.15 C4.46 10.39 4.86 11.63 5.27 12.91 C5.59 13.9 5.59 13.9 5.91 14.9 C10.12 28.02 14.85 40.66 21 53 C21.66 54.34 21.66 54.34 22.33 55.7 C32.27 75.68 43.57 94.77 56.73 112.8 C57.29 113.57 57.85 114.34 58.43 115.14 C58.93 115.82 59.42 116.49 59.94 117.19 C60.29 117.79 60.64 118.38 61 119 C61 119.99 61 120.98 61 122 C45.82 109.5 32.81 95.93 22.55 79.05 C17.26 70.03 13.02 60.64 9 51 C8.22 49.27 8.22 49.27 7.43 47.51 C5.94 43.85 4.86 40.2 3.94 36.38 C3.77 35.68 3.6 34.98 3.42 34.26 C0.69 22.72 -0.29 11.82 0 0 Z " fill="#FEF7F8" transform="translate(67,257)"/>
<path d="M0 0 C10.89 0 21.78 0 33 0 C33.93 2.37 34.86 4.74 35.81 7.19 C36.1 7.9 36.38 8.62 36.68 9.36 C39.19 15.92 40.37 21.93 42 29 C31.44 29 20.88 29 10 29 C9.67 29.66 9.34 30.32 9 31 C8.77 29.94 8.54 28.87 8.3 27.77 C7.97 26.31 7.64 24.84 7.31 23.38 C7.16 22.68 7.01 21.99 6.86 21.27 C5.17 13.83 2.63 7.37 0 0 Z " fill="#D2D3D8" transform="translate(338,247)"/>
<path d="M0 0 C3.52 3.25 6.17 6.91 8.81 10.88 C9.21 11.46 9.61 12.04 10.03 12.63 C14.41 19.19 17.38 25.77 21 33 C9.45 33 -2.1 33 -14 33 C-16.31 29.37 -18.62 25.74 -21 22 C-16.62 16.75 -11.99 11.87 -7.12 7.06 C-6.44 6.38 -5.75 5.69 -5.04 4.99 C-3.36 3.32 -1.68 1.66 0 0 Z " fill="#F14C59" transform="translate(317,214)"/>
<path d="M0 0 C1.7 2.19 3.04 4.09 4.19 6.62 C5 10 5 10 5 20 C-3.91 20 -12.82 20 -22 20 C-21.01 19.34 -20.02 18.68 -19 18 C-12.2 12.5 -6.12 6.22 0 0 Z " fill="#C54453" transform="translate(275,256)"/>
<path d="M0 0 C0 0.99 0 1.98 0 3 C-0.57 3.63 -1.14 4.26 -1.72 4.91 C-5.27 8.84 -8.82 12.77 -12.25 16.81 C-20.03 25.71 -28.47 33.89 -37.76 41.2 C-39.64 42.71 -41.34 44.25 -43 46 C-43.66 45.67 -44.32 45.34 -45 45 C-44.36 44.3 -43.72 43.6 -43.06 42.88 C-42.19 41.93 -41.33 40.98 -40.44 40 C-39.98 39.5 -39.52 38.99 -39.04 38.47 C-36.53 35.7 -34.05 32.91 -31.62 30.06 C-24.4 21.76 -16.39 14.11 -8 7 C-6.5 5.69 -5 4.38 -3.5 3.06 C-2.33 2.04 -1.17 1.02 0 0 Z " fill="#E8EAEC" transform="translate(424,79)"/>
<path d="M0 0 C2.38 2.19 2.38 2.19 5 5 C5.66 6.65 6.32 8.3 7 10 C1.72 10 -3.56 10 -9 10 C-2.97 2.9 -2.97 2.9 0 0 Z " fill="#FEFDFD" transform="translate(296,237)"/>
</svg>
