<?xml version="1.0" encoding="UTF-8"?>
<!-- Generator: visioncortex VTracer 0.6.4 -->
<svg version="1.1" xmlns="http://www.w3.org/2000/svg" width="512" height="512">
<path d="M0 0 C1.02 0 2.04 0 3.08 0.01 C17.69 0.06 32.03 0.31 46.38 3.31 C47.35 3.51 48.32 3.71 49.33 3.91 C79.86 10.3 108.64 21.21 135.38 37.31 C150.5 46.81 164.52 57.93 177.38 70.31 C178.36 71.26 178.36 71.26 179.37 72.23 C188.86 81.37 197.6 90.67 205.38 101.31 C206.23 102.46 207.09 103.61 207.95 104.77 C213.99 112.96 219.35 121.47 224.38 130.31 C224.74 130.94 225.1 131.58 225.48 132.23 C239.4 156.55 248.33 183.65 253.55 211.12 C256.06 226.17 256.78 240.94 256.75 256.19 C256.75 257.74 256.75 257.74 256.75 259.32 C256.71 275.65 255.89 291.32 252.38 307.31 C252.16 308.34 251.94 309.36 251.71 310.42 C245.31 339.6 234.26 367.57 218.33 392.89 C210.01 405.84 200.45 417.7 190.38 429.31 C189.18 430.7 189.18 430.7 187.96 432.11 C184.02 436.58 180 440.72 175.44 444.55 C173.19 446.47 171.04 448.48 168.88 450.5 C148.54 468.76 124.17 483.54 98.93 493.92 C83.05 500.23 66.68 505.2 49.94 508.62 C49.22 508.77 48.5 508.92 47.76 509.07 C33.08 511.86 18.56 512.66 3.65 512.63 C0.71 512.63 -2.23 512.65 -5.17 512.67 C-18.54 512.72 -31.44 511.51 -44.62 509.31 C-46.33 509.03 -46.33 509.03 -48.07 508.74 C-76.37 503.66 -103.65 493.13 -128.56 478.88 C-141.69 471.15 -154.09 462.26 -165.62 452.31 C-166.37 451.68 -167.12 451.04 -167.88 450.39 C-181.39 438.58 -194.06 425.83 -204.62 411.31 C-205.48 410.16 -206.34 409.01 -207.2 407.86 C-213.24 399.67 -218.62 391.17 -223.62 382.31 C-224.03 381.61 -224.43 380.9 -224.84 380.17 C-237.87 357.03 -246.62 331.86 -251.94 305.88 C-252.08 305.16 -252.23 304.44 -252.38 303.7 C-255.36 288.05 -256 272.58 -255.94 256.69 C-255.94 255.67 -255.93 254.65 -255.93 253.6 C-255.88 238.99 -255.63 224.66 -252.62 210.31 C-252.43 209.34 -252.23 208.36 -252.02 207.36 C-245.64 176.82 -234.73 148.05 -218.62 121.31 C-209.13 106.19 -198 92.16 -185.62 79.31 C-184.99 78.65 -184.36 77.99 -183.71 77.31 C-174.57 67.83 -165.27 59.09 -154.62 51.31 C-153.47 50.45 -152.32 49.6 -151.17 48.74 C-142.98 42.7 -134.48 37.32 -125.62 32.31 C-124.92 31.91 -124.21 31.51 -123.48 31.09 C-100.35 18.07 -75.18 9.32 -49.19 4 C-48.47 3.85 -47.75 3.71 -47.01 3.55 C-31.36 0.58 -15.89 -0.06 0 0 Z " fill="#50206C" transform="translate(255.625,-0.3125)"/>
<path d="M0 0 C3.77 3.18 7.49 6.36 10.96 9.87 C11.62 10.52 12.27 11.18 12.95 11.86 C13.6 12.52 14.26 13.19 14.94 13.88 C15.62 14.56 16.31 15.25 17.01 15.96 C18.68 17.64 20.34 19.32 22 21 C21.1 27.57 21.1 27.57 20.45 30.4 C19.1 38.14 19.37 46.67 20.5 54.43 C21.18 57.36 22.01 60.15 23 63 C23.33 63.97 23.66 64.94 24 65.94 C27.09 74.15 31.56 81.18 37 88 C42.48 94.08 49.19 98.39 56.36 102.24 C63.47 105.83 71.14 107.9 79 109 C87.28 109.64 95.02 109.01 103.02 106.91 C111.24 104.53 118.69 100.88 125.81 96.12 C131.88 91.54 136.81 86.34 141 80 C145.37 72.74 148.99 65.26 151 57 C152.43 48.75 153.06 40.27 151.66 31.98 C150.05 24.28 147.46 17.05 144 10 C144.33 9.34 144.66 8.68 145 8 C184.6 47.6 224.2 87.2 265 128 C265 147.88 265 147.88 263.38 158.06 C263.11 159.78 263.11 159.78 262.84 161.53 C257.95 191.57 248.02 220.09 233.41 246.77 C223.78 263.91 211.85 279.19 199 294 C197.81 295.38 197.81 295.38 196.59 296.79 C192.65 301.27 188.63 305.4 184.07 309.24 C181.81 311.16 179.67 313.17 177.5 315.19 C157.17 333.45 132.79 348.23 107.56 358.61 C83.26 368.25 58.03 374.65 32 377 C26.39 377 20.78 377 15 377 C-24.6 337.4 -64.2 297.8 -105 257 C-104.01 256.67 -103.02 256.34 -102 256 C-100.93 256.6 -100.93 256.6 -99.83 257.21 C-93.62 260.51 -87.66 263.15 -80.74 264.52 C-72.15 265.62 -63.28 266.12 -54.72 264.59 C-46.85 262.76 -39.4 259.68 -32.42 255.62 C-28.64 253.08 -25.27 250.17 -22 247 C-21.34 247 -20.68 247 -20 247 C-19.61 246.13 -19.61 246.13 -19.2 245.25 C-17.94 242.89 -16.48 241.1 -14.75 239.06 C-9.76 232.72 -6.76 225.73 -3.96 218.2 C-1.33 209.5 -1.3 200.4 -1.79 191.38 C-2.5 183.34 -5.37 176.03 -8.75 168.75 C-12.76 161.19 -17.92 154.81 -24.06 148.88 C-30.04 143.82 -36.77 139.95 -44 137 C-52.9 133.9 -61.84 132.54 -71.27 132.66 C-76.88 133.17 -82.43 134.14 -88 135 C-98.89 124.11 -98.89 124.11 -110 113 C-109.67 111.68 -109.34 110.36 -109 109 C-107.32 106.96 -107.32 106.96 -105.12 104.78 C-104.3 103.96 -103.48 103.14 -102.64 102.3 C-101.74 101.42 -100.85 100.54 -99.93 99.64 C-99.02 98.74 -98.12 97.83 -97.18 96.9 C-94.77 94.5 -92.35 92.11 -89.93 89.72 C-87.45 87.28 -84.99 84.83 -82.53 82.38 C-77.69 77.58 -72.85 72.79 -68 68 C-65.68 69.01 -63.95 70.05 -62.04 71.72 C-61.35 72.41 -60.67 73.1 -59.97 73.81 C-59.19 74.59 -58.4 75.37 -57.6 76.17 C-56.77 77.02 -55.94 77.86 -55.08 78.73 C-54.22 79.59 -53.36 80.45 -52.47 81.34 C-49.73 84.1 -46.99 86.86 -44.25 89.62 C-42.39 91.5 -40.53 93.37 -38.67 95.23 C-34.11 99.82 -29.55 104.41 -25 109 C-22.5 107.83 -20.79 106.81 -18.71 104.94 C-17.89 104.11 -17.08 103.28 -16.23 102.43 C-15.34 101.53 -14.46 100.64 -13.54 99.71 C-12.62 98.78 -11.7 97.84 -10.75 96.88 C-9.81 95.92 -8.86 94.97 -7.91 94.01 C-5.6 91.68 -3.3 89.34 -1 87 C-5.56 81.53 -10.41 76.46 -15.46 71.44 C-16.25 70.65 -17.04 69.86 -17.86 69.05 C-20.36 66.55 -22.87 64.06 -25.38 61.56 C-27.08 59.86 -28.79 58.16 -30.5 56.46 C-34.66 52.3 -38.83 48.15 -43 44 C-38.38 38.45 -33.45 33.31 -28.32 28.22 C-27.51 27.41 -26.69 26.6 -25.86 25.76 C-23.28 23.19 -20.7 20.63 -18.12 18.06 C-16.37 16.31 -14.61 14.56 -12.86 12.81 C-8.58 8.54 -4.29 4.27 0 0 Z " fill="#3D1952" transform="translate(247,135)"/>
<path d="M0 0 C7.97 1.72 15.21 4.47 22.23 8.65 C29.22 13.12 35.13 18.62 40.3 25.11 C45.58 32.13 49.15 39.58 51.73 47.97 C54.21 56.48 54.32 64.66 53.92 73.48 C53.35 80.89 51.21 87.66 48.19 94.43 C44.05 102.55 39.1 109.71 32.56 116.08 C24.71 122.86 15.45 127.14 5.96 131.14 C-0.76 133.39 -7.76 133.39 -14.79 133.32 C-21.91 133.12 -28.52 132.38 -35.27 129.97 C-43.18 126.68 -50.44 122.72 -56.97 117.11 C-62.98 111.52 -67.87 106.13 -71.64 98.8 C-76.06 89.89 -79.12 81.9 -80.27 71.97 C-80.86 64.54 -80.46 57.73 -78.71 50.47 C-75.84 40.79 -71.66 31.86 -65.64 23.72 C-59.88 16.96 -52.84 11.79 -45.33 7.15 C-31.24 -0.48 -15.74 -2.98 0 0 Z " fill="#DEDEE1" transform="translate(192.26904296875,268.031494140625)"/>
<path d="M0 0 C7.31 2.23 13.9 5.16 20.25 9.44 C27.54 15.07 34.25 21.68 39.25 29.44 C43.61 36.74 46.55 44.26 48.55 52.52 C50.01 60.73 49.95 68.59 48.59 76.77 C47 84.99 44.42 92.24 40.17 99.5 C35.76 106.25 30.87 112.56 24.62 117.71 C17.14 123.14 9.57 127.3 0.69 129.88 C-1.45 130.43 -3.6 130.95 -5.75 131.44 C-6.58 131.63 -7.41 131.82 -8.26 132.02 C-15.02 133.16 -21.99 133.02 -28.73 131.79 C-38.11 129.79 -46.53 126.43 -54.75 121.44 C-61.36 116.86 -67.04 111.65 -71.9 105.24 C-77.07 97.4 -81.5 88.58 -83.75 79.44 C-85.34 71.57 -85.36 63.43 -84.75 55.44 C-83.26 46.72 -79.96 38.64 -75.86 30.83 C-71.24 23.4 -65.13 17.24 -58.44 11.62 C-51.82 6.76 -44.11 2.88 -36.32 0.3 C-24.55 -2.55 -11.79 -2.86 0 0 Z " fill="#DEDEE1" transform="translate(350.75,112.5625)"/>
<path d="M0 0 C2.34 1.02 4.07 2.07 6 3.76 C6.7 4.47 7.4 5.17 8.13 5.9 C8.93 6.7 9.73 7.5 10.55 8.33 C11.41 9.19 12.26 10.05 13.14 10.95 C14.02 11.83 14.9 12.72 15.81 13.63 C18.15 15.97 20.49 18.33 22.82 20.68 C25.2 23.08 27.59 25.48 29.98 27.88 C34.66 32.58 39.33 37.29 44 42 C46.34 40.98 48.07 39.93 50 38.24 C50.7 37.53 51.4 36.83 52.13 36.1 C52.93 35.3 53.73 34.5 54.55 33.67 C55.83 32.38 55.83 32.38 57.14 31.05 C58.02 30.17 58.9 29.28 59.81 28.37 C62.15 26.03 64.49 23.67 66.82 21.32 C69.2 18.92 71.59 16.52 73.98 14.12 C78.66 9.42 83.33 4.71 88 0 C90.5 1.17 92.21 2.19 94.29 4.06 C95.11 4.89 95.92 5.72 96.77 6.57 C97.66 7.47 98.54 8.36 99.46 9.29 C100.38 10.22 101.3 11.16 102.25 12.12 C103.19 13.08 104.14 14.03 105.09 14.99 C107.4 17.32 109.7 19.66 112 22 C111.74 23.74 111.74 23.74 111 26 C109.32 28.04 109.32 28.04 107.12 30.22 C105.89 31.45 105.89 31.45 104.64 32.7 C103.74 33.58 102.85 34.46 101.93 35.36 C100.57 36.72 100.57 36.72 99.18 38.1 C96.77 40.5 94.35 42.89 91.93 45.28 C89.45 47.72 86.99 50.17 84.53 52.62 C79.69 57.42 74.85 62.21 70 67 C74.56 72.47 79.41 77.54 84.46 82.56 C85.25 83.35 86.04 84.14 86.86 84.95 C89.36 87.45 91.87 89.94 94.38 92.44 C96.08 94.14 97.79 95.84 99.5 97.54 C103.66 101.7 107.83 105.85 112 110 C110.8 112.56 109.77 114.25 107.85 116.38 C106.98 117.24 106.11 118.1 105.21 118.98 C104.75 119.44 104.28 119.91 103.81 120.38 C102.33 121.84 100.85 123.3 99.38 124.75 C98.37 125.74 97.37 126.74 96.37 127.73 C93.92 130.16 91.46 132.58 89 135 C83.45 130.38 78.31 125.45 73.22 120.32 C72.41 119.51 71.6 118.69 70.76 117.86 C68.19 115.28 65.63 112.7 63.06 110.12 C61.31 108.37 59.56 106.61 57.81 104.86 C53.54 100.58 49.27 96.29 45 92 C39.53 96.56 34.46 101.41 29.44 106.46 C28.26 107.65 28.26 107.65 27.05 108.86 C24.55 111.36 22.06 113.87 19.56 116.38 C17.86 118.08 16.16 119.79 14.46 121.5 C10.3 125.66 6.15 129.83 2 134 C-0.5 132.83 -2.21 131.81 -4.29 129.94 C-5.11 129.11 -5.92 128.28 -6.77 127.43 C-7.66 126.53 -8.54 125.64 -9.46 124.71 C-10.38 123.78 -11.3 122.84 -12.25 121.88 C-13.19 120.92 -14.14 119.97 -15.09 119.01 C-17.4 116.68 -19.7 114.34 -22 112 C-20.98 109.66 -19.93 107.93 -18.24 106 C-17.53 105.3 -16.83 104.6 -16.1 103.87 C-15.3 103.07 -14.5 102.27 -13.67 101.45 C-12.81 100.59 -11.95 99.74 -11.05 98.86 C-10.17 97.98 -9.28 97.1 -8.37 96.19 C-6.03 93.85 -3.67 91.51 -1.32 89.18 C1.08 86.8 3.48 84.41 5.88 82.02 C10.58 77.34 15.29 72.67 20 68 C19 65.72 17.98 63.97 16.33 62.08 C15.67 61.42 15 60.76 14.32 60.07 C13.56 59.32 12.81 58.56 12.03 57.78 C11.22 56.97 10.4 56.16 9.56 55.33 C8.73 54.5 7.89 53.66 7.03 52.8 C5.26 51.04 3.49 49.28 1.72 47.52 C-0.99 44.82 -3.7 42.11 -6.41 39.4 C-8.13 37.69 -9.85 35.98 -11.56 34.27 C-12.78 33.05 -12.78 33.05 -14.03 31.8 C-14.79 31.06 -15.54 30.31 -16.32 29.54 C-16.98 28.88 -17.65 28.22 -18.33 27.54 C-19.94 25.92 -19.94 25.92 -22 25 C-21.79 23.31 -21.79 23.31 -21 21 C-18.96 18.62 -18.96 18.62 -16.31 16.02 C-15.61 15.32 -15.61 15.32 -14.9 14.62 C-13.42 13.16 -11.93 11.7 -10.44 10.25 C-9.43 9.26 -8.42 8.26 -7.42 7.27 C-4.95 4.84 -2.48 2.42 0 0 Z " fill="#DEDEE0" transform="translate(288,267)"/>
<path d="M0 0 C0.66 0 1.32 0 2 0 C3.27 1.52 3.27 1.52 4.56 3.06 C10.66 10.06 17.4 16.48 24 23 C22.98 25.34 21.93 27.07 20.24 29 C19.53 29.7 18.83 30.4 18.1 31.13 C17.3 31.93 16.5 32.73 15.67 33.55 C14.38 34.83 14.38 34.83 13.05 36.14 C12.17 37.02 11.28 37.9 10.37 38.81 C8.03 41.15 5.67 43.49 3.32 45.82 C0.92 48.2 -1.48 50.59 -3.88 52.98 C-8.58 57.66 -13.29 62.33 -18 67 C-13.38 72.55 -8.45 77.69 -3.32 82.78 C-2.51 83.59 -1.69 84.4 -0.86 85.24 C1.72 87.81 4.3 90.37 6.88 92.94 C8.63 94.69 10.39 96.44 12.14 98.19 C16.42 102.46 20.71 106.73 25 111 C21.68 114.93 18.35 118.78 14.7 122.4 C13.95 123.15 13.2 123.89 12.43 124.66 C11.29 125.79 11.29 125.79 10.12 126.94 C9.34 127.72 8.56 128.5 7.75 129.3 C5.84 131.2 3.92 133.1 2 135 C-0.34 133.98 -2.07 132.93 -4 131.24 C-4.7 130.53 -5.4 129.83 -6.13 129.1 C-6.93 128.3 -7.73 127.5 -8.55 126.67 C-9.41 125.81 -10.26 124.95 -11.14 124.05 C-12.02 123.17 -12.9 122.28 -13.81 121.37 C-16.15 119.03 -18.49 116.67 -20.82 114.32 C-23.2 111.92 -25.59 109.52 -27.98 107.12 C-32.66 102.42 -37.33 97.71 -42 93 C-44.34 94.02 -46.07 95.07 -48 96.76 C-48.7 97.47 -49.4 98.17 -50.13 98.9 C-51.33 100.1 -51.33 100.1 -52.55 101.33 C-53.41 102.19 -54.26 103.05 -55.14 103.95 C-56.02 104.83 -56.9 105.72 -57.81 106.63 C-60.15 108.97 -62.49 111.33 -64.82 113.68 C-67.2 116.08 -69.59 118.48 -71.98 120.88 C-76.66 125.58 -81.33 130.29 -86 135 C-89.93 131.68 -93.78 128.35 -97.4 124.7 C-98.15 123.95 -98.89 123.2 -99.66 122.43 C-100.41 121.67 -101.16 120.91 -101.94 120.12 C-102.72 119.34 -103.5 118.56 -104.3 117.75 C-106.2 115.84 -108.1 113.92 -110 112 C-105.44 106.53 -100.59 101.46 -95.54 96.44 C-94.75 95.65 -93.96 94.86 -93.14 94.05 C-90.64 91.55 -88.13 89.06 -85.62 86.56 C-83.92 84.86 -82.21 83.16 -80.5 81.46 C-76.34 77.3 -72.17 73.15 -68 69 C-69.02 66.66 -70.07 64.93 -71.76 63 C-72.47 62.3 -73.17 61.6 -73.9 60.87 C-74.7 60.07 -75.5 59.27 -76.33 58.45 C-77.19 57.59 -78.05 56.74 -78.95 55.86 C-79.83 54.98 -80.72 54.1 -81.63 53.19 C-83.97 50.85 -86.33 48.51 -88.68 46.18 C-91.08 43.8 -93.48 41.41 -95.88 39.02 C-100.58 34.34 -105.29 29.67 -110 25 C-108.83 22.5 -107.81 20.79 -105.94 18.71 C-105.11 17.89 -104.28 17.08 -103.43 16.23 C-102.09 14.9 -102.09 14.9 -100.71 13.54 C-99.78 12.62 -98.84 11.7 -97.88 10.75 C-96.92 9.81 -95.97 8.86 -95.01 7.91 C-92.68 5.6 -90.34 3.3 -88 1 C-85.68 2.01 -83.95 3.05 -82.04 4.72 C-81.35 5.41 -80.67 6.1 -79.97 6.81 C-79.19 7.59 -78.4 8.37 -77.6 9.17 C-76.77 10.02 -75.94 10.86 -75.08 11.73 C-74.22 12.59 -73.36 13.45 -72.47 14.34 C-69.73 17.1 -66.99 19.86 -64.25 22.62 C-62.39 24.5 -60.53 26.37 -58.67 28.23 C-54.11 32.82 -49.55 37.41 -45 42 C-43.15 41.78 -43.15 41.78 -41 41 C-38.87 39.31 -38.87 39.31 -36.78 37.12 C-35.96 36.3 -35.14 35.48 -34.3 34.64 C-33.42 33.74 -32.54 32.85 -31.64 31.93 C-30.74 31.02 -29.83 30.12 -28.9 29.18 C-26.5 26.77 -24.11 24.35 -21.72 21.93 C-19.28 19.45 -16.83 16.99 -14.38 14.53 C-9.58 9.69 -4.79 4.85 0 0 Z " fill="#DEDEE1" transform="translate(222,110)"/>
<path d="M0 0 C0 10.89 0 21.78 0 33 C-4.62 34.32 -9.24 35.64 -14 37 C-18.33 39.38 -21.47 41.34 -24.77 44.92 C-28.01 49 -30.2 53.08 -32 58 C-32.61 63.38 -32.48 68.62 -32 74 C-31.1 77.64 -29.88 80.76 -28 84 C-25.94 87 -25.94 87 -24 89 C-24 89.66 -24 90.32 -24 91 C-23.46 91.27 -22.92 91.53 -22.36 91.81 C-20.64 92.68 -18.93 93.57 -17.23 94.47 C-10.78 97.98 -10.78 97.98 -3.75 99.88 C-2.84 99.92 -1.94 99.96 -1 100 C-0.67 100.33 -0.34 100.66 0 101 C0 111.56 0 122.12 0 133 C-14.83 133 -14.83 133 -22.45 130.26 C-31.14 126.99 -38.61 122.42 -45.69 116.44 C-51.67 110.72 -56.27 104.37 -60 97 C-63.19 89.98 -66.09 82.69 -67 75 C-67.61 66.49 -67.63 58.04 -65.44 49.75 C-62.82 41.89 -59.75 34.01 -54.75 27.33 C-49.37 20.73 -43.22 14.57 -36 10 C-28.57 5.87 -21.25 2.18 -12.81 0.59 C-12.21 0.52 -11.62 0.45 -11 0.38 C-10.4 0.3 -9.8 0.23 -9.19 0.15 C-6.13 -0.06 -3.06 0 0 0 Z " fill="#FDFDFD" transform="translate(333,111)"/>
<path d="M0 0 C0 10.56 0 21.12 0 32 C-6.44 33.98 -6.44 33.98 -13 36 C-17.75 38.71 -21.6 41.33 -25.31 45.31 C-27.75 48.45 -29.81 51.6 -31.3 55.29 C-32.51 59.97 -32.53 64.53 -32.38 69.34 C-31.94 73.57 -31.08 76.97 -29.25 80.79 C-27.12 84.55 -25.07 87.92 -22 91 C-18.74 93.56 -15.8 95.1 -12 97 C-8.04 97.99 -4.08 98.98 0 100 C0 110.89 0 121.78 0 133 C-8.19 133 -14.32 132.44 -22 130 C-29.94 126.74 -37.17 122.74 -43.7 117.14 C-49.72 111.55 -54.6 106.16 -58.37 98.84 C-62.79 89.92 -65.85 81.93 -67 72 C-67.59 64.57 -67.19 57.76 -65.44 50.5 C-62.57 40.83 -58.39 31.89 -52.38 23.75 C-46.59 16.96 -39.5 11.65 -31.85 7.14 C-20.74 1.35 -13.02 0 0 0 Z " fill="#FDFDFD" transform="translate(179,268)"/>
<path d="M0 0 C2.33 1.01 4.07 2.06 5.99 3.75 C6.69 4.45 7.39 5.15 8.11 5.87 C8.91 6.66 9.7 7.46 10.53 8.27 C11.38 9.13 12.23 9.99 13.11 10.88 C14.43 12.2 14.43 12.2 15.77 13.54 C18.1 15.88 20.43 18.22 22.76 20.56 C24.66 22.48 26.57 24.39 28.48 26.29 C30.75 28.57 33.02 30.85 35.29 33.12 C36.58 34.41 36.58 34.41 37.89 35.73 C38.68 36.52 39.47 37.31 40.28 38.13 C41.32 39.18 41.32 39.18 42.39 40.25 C44 42 44 42 45 44 C45.09 45.51 45.12 47.03 45.11 48.54 C45.11 49.5 45.11 50.45 45.11 51.43 C45.11 52.44 45.1 53.44 45.1 54.48 C45.1 55.4 45.1 56.32 45.09 57.27 C45.09 60.72 45.08 64.17 45.06 67.62 C45.04 75.34 45.02 83.05 45 91 C30.81 105.19 16.62 119.38 2 134 C-1.84 132.08 -3.79 130.44 -6.77 127.43 C-7.66 126.53 -8.54 125.64 -9.46 124.71 C-10.38 123.78 -11.3 122.84 -12.25 121.88 C-13.19 120.92 -14.14 119.97 -15.09 119.01 C-17.4 116.68 -19.7 114.34 -22 112 C-20.98 109.66 -19.93 107.93 -18.24 106 C-17.53 105.3 -16.83 104.6 -16.1 103.87 C-15.3 103.07 -14.5 102.27 -13.67 101.45 C-12.81 100.59 -11.95 99.74 -11.05 98.86 C-10.17 97.98 -9.28 97.1 -8.37 96.19 C-6.03 93.85 -3.67 91.51 -1.32 89.18 C1.08 86.8 3.48 84.41 5.88 82.02 C10.58 77.34 15.29 72.67 20 68 C19 65.72 17.98 63.97 16.33 62.08 C15.67 61.42 15 60.76 14.32 60.07 C13.56 59.32 12.81 58.56 12.03 57.78 C11.22 56.97 10.4 56.16 9.56 55.33 C8.73 54.5 7.89 53.66 7.03 52.8 C5.26 51.04 3.49 49.28 1.72 47.52 C-0.99 44.82 -3.7 42.11 -6.41 39.4 C-8.13 37.69 -9.85 35.98 -11.56 34.27 C-12.78 33.05 -12.78 33.05 -14.03 31.8 C-14.79 31.06 -15.54 30.31 -16.32 29.54 C-16.98 28.88 -17.65 28.22 -18.33 27.54 C-19.94 25.92 -19.94 25.92 -22 25 C-21.79 23.31 -21.79 23.31 -21 21 C-18.96 18.62 -18.96 18.62 -16.31 16.02 C-15.61 15.32 -15.61 15.32 -14.9 14.62 C-13.42 13.16 -11.93 11.7 -10.44 10.25 C-9.43 9.26 -8.42 8.26 -7.42 7.27 C-4.95 4.84 -2.48 2.42 0 0 Z " fill="#FDFDFD" transform="translate(288,267)"/>
<path d="M0 0 C2.37 1.02 4.1 2.08 6.04 3.8 C6.76 4.52 7.48 5.24 8.22 5.99 C9.45 7.22 9.45 7.22 10.7 8.48 C11.58 9.36 12.46 10.25 13.36 11.16 C14.26 12.07 15.17 12.98 16.1 13.91 C18.5 16.32 20.89 18.73 23.28 21.14 C25.72 23.61 28.17 26.07 30.62 28.52 C35.42 33.34 40.21 38.17 45 43 C45 58.51 45 74.02 45 90 C37.12 99 37.12 99 33.9 102.21 C33.18 102.93 32.46 103.65 31.72 104.4 C30.97 105.14 30.22 105.89 29.44 106.66 C28.26 107.84 28.26 107.84 27.05 109.04 C24.56 111.53 22.06 114.02 19.56 116.5 C17.86 118.2 16.16 119.9 14.46 121.59 C10.31 125.73 6.15 129.87 2 134 C-1.93 130.68 -5.78 127.35 -9.4 123.7 C-10.15 122.95 -10.89 122.2 -11.66 121.43 C-12.41 120.67 -13.16 119.91 -13.94 119.12 C-14.72 118.34 -15.5 117.56 -16.3 116.75 C-18.2 114.84 -20.1 112.92 -22 111 C-17.44 105.53 -12.59 100.46 -7.54 95.44 C-6.75 94.65 -5.96 93.86 -5.14 93.05 C-2.64 90.55 -0.13 88.06 2.38 85.56 C4.08 83.86 5.79 82.16 7.5 80.46 C11.66 76.3 15.83 72.15 20 68 C18.98 65.66 17.93 63.93 16.24 62 C15.53 61.3 14.83 60.6 14.1 59.87 C13.3 59.07 12.5 58.27 11.67 57.45 C10.81 56.59 9.95 55.74 9.05 54.86 C8.17 53.98 7.28 53.1 6.37 52.19 C4.03 49.85 1.67 47.51 -0.68 45.18 C-3.08 42.8 -5.48 40.41 -7.88 38.02 C-12.58 33.34 -17.29 28.67 -22 24 C-20.83 21.5 -19.81 19.79 -17.94 17.71 C-17.11 16.89 -16.28 16.08 -15.43 15.23 C-14.09 13.9 -14.09 13.9 -12.71 12.54 C-11.78 11.62 -10.84 10.7 -9.88 9.75 C-8.92 8.81 -7.97 7.86 -7.01 6.91 C-4.68 4.6 -2.34 2.3 0 0 Z " fill="#FEFDFE" transform="translate(134,111)"/>
<path d="M0 0 C4.61 0.82 8.74 2.04 13 4 C16.88 6.59 20.01 9.42 23 13 C25.6 17.16 27.45 21.36 29 26 C29.45 31.66 29.64 37.32 28.32 42.86 C26.49 47.73 24.02 52.12 20.77 56.18 C17.61 59.44 14.05 61.97 10 64 C4.3 65.96 -0.93 66.44 -6.93 66.44 C-10.13 66.35 -12.95 66.01 -16.02 65.09 C-18.52 63.9 -20.73 62.59 -23 61 C-23.65 60.55 -24.31 60.11 -24.98 59.65 C-27.63 57.63 -29.6 55.59 -31.47 52.83 C-33.86 48.68 -35.69 44.62 -37 40 C-37.6 34.93 -37.57 30.07 -37 25 C-35.29 19.69 -32.76 15.28 -29.36 10.88 C-25.8 7.01 -21.73 4.42 -17.11 1.95 C-11.56 -0.54 -5.99 -0.51 0 0 Z " fill="#3E1A52" transform="translate(183,301)"/>
<path d="M0 0 C3.29 0.58 6.04 1.46 9 3 C11.98 4.72 14.53 6.6 17 9 C20.21 12.92 22.81 17.18 24.88 21.81 C26 25.17 26.27 28.34 26.38 31.88 C26.23 36.72 25.62 41.1 24.04 45.69 C22.26 49.65 20 52.86 17 56 C13.43 59.2 9.69 61.83 5.31 63.81 C0.71 65.46 -3.68 66.22 -8.56 66.44 C-12.18 66.41 -14.86 66.05 -18.27 64.84 C-22.58 62.76 -26.29 60.6 -29.94 57.5 C-30.62 56.68 -31.3 55.85 -32 55 C-32.87 54.09 -33.73 53.19 -34.62 52.25 C-36.42 49.99 -37.73 47.8 -38.81 45.12 C-40.43 39.54 -40.71 33.8 -40.47 28.01 C-40.14 24.18 -39.17 21.01 -37.56 17.5 C-35.35 13.69 -32.92 10.56 -29.75 7.5 C-26.03 4.54 -22.37 2.2 -17.87 0.62 C-11.92 -0.67 -6.03 -0.54 0 0 Z " fill="#3D1A52" transform="translate(340,145)"/>
</svg>
