<?xml version="1.0" encoding="UTF-8"?>
<!-- Generator: visioncortex VTracer 0.6.4 -->
<svg version="1.1" xmlns="http://www.w3.org/2000/svg" width="512" height="512">
<path d="M0 0 C43.56 0 87.12 0 132 0 C132.99 0.99 132.99 0.99 134 2 C134 42.59 134 83.18 134 125 C171.95 125 209.9 125 249 125 C249 84.41 249 43.82 249 2 C249.66 1.34 250.32 0.68 251 0 C294.56 0 338.12 0 383 0 C383.66 0.66 384.32 1.32 385 2 C385 42.59 385 83.18 385 125 C425.59 125 466.18 125 508 125 C508.66 125.66 509.32 126.32 510 127 C510 212.14 510 297.28 510 385 C509.34 385.66 508.68 386.32 508 387 C464.77 387 421.54 387 377 387 C376.01 386.01 375.02 385.02 374 384 C374 343.41 374 302.82 374 261 C294.8 261 215.6 261 134 261 C134 343.17 134 425.34 134 510 C133.34 510.66 132.68 511.32 132 512 C88.44 512 44.88 512 0 512 C-0.66 511.34 -1.32 510.68 -2 510 C-2 342.36 -2 174.72 -2 2 C-1.34 1.34 -0.68 0.68 0 0 Z " fill="#31373B" transform="translate(2,0)"/>
<path d="M0 0 C37.95 0 75.9 0 115 0 C115.5 0.5 115.5 0.5 116 1 C116 38.95 116 76.9 116 116 C77.72 116 39.44 116 0 116 C0 77.72 0 39.44 0 0 Z " fill="#FDBF6C" transform="translate(10,386)"/>
<path d="M0 0 C38.28 0 76.56 0 116 0 C116 38.28 116 76.56 116 116 C78.05 116 40.1 116 1 116 C0.67 115.67 0.34 115.34 0 115 C0 77.05 0 39.1 0 0 Z " fill="#FDBF6C" transform="translate(386,261)"/>
<path d="M0 0 C38.28 0 76.56 0 116 0 C116 37.95 116 75.9 116 115 C115.67 115.33 115.34 115.66 115 116 C77.05 116 39.1 116 0 116 C0 77.72 0 39.44 0 0 Z " fill="#FDBF6C" transform="translate(10,261)"/>
<path d="M0 0 C37.95 0 75.9 0 115 0 C115 38.28 115 76.56 115 116 C76.72 116 38.44 116 -1 116 C-1 78.05 -1 40.1 -1 1 C-0.67 0.67 -0.34 0.34 0 0 Z " fill="#167DE4" transform="translate(387,135)"/>
<path d="M0 0 C37.95 0 75.9 0 115 0 C115.5 0.5 115.5 0.5 116 1 C116 38.95 116 76.9 116 116 C77.72 116 39.44 116 0 116 C0 77.72 0 39.44 0 0 Z " fill="#167DE4" transform="translate(261,135)"/>
<path d="M0 0 C37.95 0 75.9 0 115 0 C115 38.28 115 76.56 115 116 C76.72 116 38.44 116 -1 116 C-1 78.05 -1 40.1 -1 1 C-0.67 0.67 -0.34 0.34 0 0 Z " fill="#167DE4" transform="translate(136,135)"/>
<path d="M0 0 C37.95 0 75.9 0 115 0 C115.5 0.5 115.5 0.5 116 1 C116 38.95 116 76.9 116 116 C77.72 116 39.44 116 0 116 C0 77.72 0 39.44 0 0 Z " fill="#167DE4" transform="translate(10,135)"/>
<path d="M0 0 C38.28 0 76.56 0 116 0 C116 37.95 116 75.9 116 115 C115.67 115.33 115.34 115.66 115 116 C77.05 116 39.1 116 0 116 C0 77.72 0 39.44 0 0 Z " fill="#FDBF6C" transform="translate(261,10)"/>
<path d="M0 0 C38.28 0 76.56 0 116 0 C116 37.95 116 75.9 116 115 C115.67 115.33 115.34 115.66 115 116 C77.05 116 39.1 116 0 116 C0 77.72 0 39.44 0 0 Z " fill="#FDBF6C" transform="translate(10,10)"/>
<path d="M0 0 C5.99 -0.42 12.02 -0.65 18 0 C20.6 0.83 22.32 1.71 24.49 3.32 C26.7 5.78 28.36 8.12 30 11 C30.37 13.82 30.54 16.23 30.5 19.03 C30.5 19.79 30.5 20.54 30.5 21.32 C30.5 22.9 30.49 24.49 30.47 26.08 C30.44 28.49 30.45 30.91 30.46 33.32 C30.45 34.87 30.44 36.42 30.43 37.97 C30.44 38.68 30.44 39.4 30.44 40.14 C30.41 42.1 30.21 44.05 30 46 C28.57 49.4 28.57 49.4 27 52 C25.14 53.99 23.21 55.36 21 57 C20.01 57.5 20.01 57.5 19 58 C15.76 58.29 12.5 58.28 9.25 58.31 C8.36 58.34 7.46 58.37 6.54 58.4 C3.97 58.42 1.54 58.35 -1 58 C-4.33 56.48 -4.33 56.48 -7 54 C-8.68 52.32 -9.87 50.74 -11.06 48.68 C-12.75 43.86 -12.63 38.91 -12.59 33.86 C-12.57 33.12 -12.56 32.39 -12.54 31.63 C-12.5 29.37 -12.5 27.12 -12.51 24.87 C-12.45 16.84 -12.45 16.84 -12 13 C-10.58 9.65 -10.58 9.65 -9 7 C-7.25 5.14 -7.25 5.14 -5.44 3.69 C-4.84 3.2 -4.24 2.71 -3.62 2.2 C-2 1 -2 1 0 0 Z " fill="#F1F3F6" transform="translate(184,164)"/>
<path d="M0 0 C4.03 -0.52 7.96 -0.4 12 0 C15.35 0.87 18.08 2.16 21 4 C24.7 6.65 27.86 9.46 30.57 13.12 C32.46 16.06 33.89 18.68 35 22 C35.5 26.73 35.5 31.27 35 36 C33.59 40.45 31.67 44.18 29 48 C25.72 51.73 22.12 54.29 17.94 56.94 C15.28 57.96 13.11 58.04 10.23 58.17 C6.48 58.21 2.74 58.13 -1 58 C-5.88 53.25 -5.88 53.25 -7 51 C-7.11 49.64 -7.16 48.28 -7.18 46.92 C-7.19 46.08 -7.2 45.24 -7.22 44.37 C-7.22 43.46 -7.23 42.55 -7.24 41.61 C-7.25 40.67 -7.25 39.73 -7.26 38.77 C-7.28 36.78 -7.29 34.79 -7.3 32.81 C-7.31 29.78 -7.36 26.75 -7.4 23.71 C-7.41 21.78 -7.42 19.85 -7.43 17.92 C-7.44 17.02 -7.46 16.12 -7.48 15.18 C-7.47 12.73 -7.39 10.43 -7 8 C-5.16 4.5 -5.16 4.5 -3 2 C-2.01 1.34 -1.02 0.68 0 0 Z " fill="#F0F3F6" transform="translate(430,164)"/>
<path d="M0 0 C2.38 0.38 2.38 0.38 5 1 C5.66 1.66 6.32 2.32 7 3 C7.33 14.22 7.66 25.44 8 37 C11.96 32.71 15.92 28.42 20 24 C21.65 24.33 23.3 24.66 25 25 C28.63 29.29 32.26 33.58 36 38 C36.33 26.12 36.66 14.24 37 2 C37.99 1.34 38.98 0.68 40 0 C42.38 0.38 42.38 0.38 45 1 C45.66 1.66 46.32 2.32 47 3 C47 20.16 47 37.32 47 55 C46.01 55.99 45.02 56.98 44 58 C42.35 58 40.7 58 39 58 C33.36 51.88 28 45.65 23 39 C21.17 39.61 21.17 39.61 19 41 C17.06 43.09 15.24 45.17 13.44 47.38 C12.96 47.95 12.47 48.53 11.98 49.12 C9.57 52.03 7.23 54.96 5 58 C3.02 58 1.04 58 -1 58 C-1.66 57.34 -2.32 56.68 -3 56 C-3 38.51 -3 21.02 -3 3 C-2.01 2.01 -1.02 1.02 0 0 Z " fill="#F0F3F6" transform="translate(46,164)"/>
<path d="M0 0 C12.19 -0.59 12.19 -0.59 18 0 C20.84 0.94 20.84 0.94 22.88 2.19 C25.69 4.45 28.01 6.98 30 10 C31.12 13.35 31.38 16.07 31.36 19.58 C31 22 31 22 29.95 24.26 C28.71 26.24 27.4 28.13 26 30 C25.34 30.99 24.68 31.98 24 33 C24.42 33.81 24.42 33.81 24.84 34.64 C25.2 35.36 25.56 36.08 25.94 36.81 C26.3 37.52 26.66 38.23 27.03 38.96 C28 41 28 41 29 44 C29.07 45.89 29.08 47.79 29.06 49.69 C29.05 50.68 29.04 51.68 29.04 52.7 C29.02 53.46 29.01 54.22 29 55 C28.01 55.99 27.02 56.98 26 58 C24.35 58 22.7 58 21 58 C20.34 57.34 19.68 56.68 19 56 C18.99 55.3 18.97 54.6 18.96 53.88 C18.8 50.85 18.55 47.98 18 45 C16.64 42.07 15 39.53 13 37 C12.5 36.5 12.5 36.5 12 36 C9.69 35.67 7.38 35.34 5 35 C5 41.6 5 48.2 5 55 C4.01 55.99 3.02 56.98 2 58 C0.35 58 -1.3 58 -3 58 C-3.66 57.34 -4.32 56.68 -5 56 C-5 39.17 -5 22.34 -5 5 C-3.35 3.35 -1.7 1.7 0 0 Z " fill="#F1F3F6" transform="translate(306,164)"/>
<path d="M0 0 C4.62 0 9.24 0 14 0 C15.32 1.32 16.64 2.64 18 4 C18 14.23 18 24.46 18 35 C17.01 35.99 16.02 36.98 15 38 C9.72 38 4.44 38 -1 38 C-1.99 36.68 -2.98 35.36 -4 34 C-4 24.1 -4 14.2 -4 4 C-2.68 2.68 -1.36 1.36 0 0 Z " fill="#1980E6" transform="translate(186,174)"/>
<path d="M0 0 C2.64 0 5.28 0 8 0 C11.07 1.15 13.47 2.93 16 5 C17.98 6.92 19.39 8.71 21 11 C22.21 14.77 22.39 18.46 22.34 22.4 C22 25 22 25 21.09 27.29 C19.87 29.38 18.6 31.18 17 33 C14.05 35.39 11.44 36.82 7.94 38.25 C5 39 5 39 0 39 C0 26.13 0 13.26 0 0 Z " fill="#1C81E6" transform="translate(433,174)"/>
<path d="M0 0 C3.63 0 7.26 0 11 0 C12.65 1.65 14.3 3.3 16 5 C15.67 7.31 15.34 9.62 15 12 C13.68 12.99 12.36 13.98 11 15 C7.37 15 3.74 15 0 15 C0 10.05 0 5.1 0 0 Z " fill="#1980E6" transform="translate(311,174)"/>
</svg>
